<?xml version="1.0" encoding="UTF-8"?>
<svg version="1.1" xmlns="http://www.w3.org/2000/svg" width="500" height="500">
<path d="M0 0 C2.22909871 -0.02714735 4.45829367 -0.04646254 6.6875 -0.0625 C7.92886719 -0.07410156 9.17023438 -0.08570313 10.44921875 -0.09765625 C13.46235454 -0.01478673 16.08275339 0.29160551 19 1 C19 1.99 19 2.98 19 4 C21.31 4.99 23.62 5.98 26 7 C26 7.66 26 8.32 26 9 C27.32 9 28.64 9 30 9 C30 9.66 30 10.32 30 11 C30.66 11 31.32 11 32 11 C32.226875 11.556875 32.45375 12.11375 32.6875 12.6875 C33.92442074 15.14296136 33.92442074 15.14296136 36.25 17.0625 C41.89255938 22.43716339 46.62653 31.71237044 47.30078125 39.453125 C47.34900144 55.07646803 47.34900144 55.07646803 44 60 C42.66956706 60.34472756 41.33595955 60.67735317 40 61 C38.43521359 62.59920704 38.43521359 62.59920704 37.125 64.625 C36.60164062 65.35332031 36.07828125 66.08164062 35.5390625 66.83203125 C35.03117188 67.54746094 34.52328125 68.26289063 34 69 C30.30234792 74.12254349 25.79066502 77.96452545 20.875 81.875 C20.26462891 82.36395752 19.65425781 82.85291504 19.02539062 83.35668945 C14.49182644 86.87913972 14.49182644 86.87913972 11.85205078 87.52783203 C11.24087402 87.68364746 10.62969727 87.83946289 10 88 C9.566875 88.8971875 9.566875 88.8971875 9.125 89.8125 C7.48233306 93.0065746 5.04916382 94.2213211 2 96 C1.34 96 0.68 96 0 96 C0 96.66 0 97.32 0 98 C-4.38461538 101 -4.38461538 101 -7 101 C-7 101.66 -7 102.32 -7 103 C-8.6796875 104.5078125 -8.6796875 104.5078125 -10.875 106.125 C-11.59429687 106.66382813 -12.31359375 107.20265625 -13.0546875 107.7578125 C-15 109 -15 109 -17 109 C-17 109.66 -17 110.32 -17 111 C-18.4609375 112.2890625 -18.4609375 112.2890625 -20.375 113.625 C-21.00148438 114.07101562 -21.62796875 114.51703125 -22.2734375 114.9765625 C-24 116 -24 116 -26 116 C-26 116.66 -26 117.32 -26 118 C-27.8984375 119.7265625 -27.8984375 119.7265625 -30.375 121.625 C-31.59316406 122.57246094 -31.59316406 122.57246094 -32.8359375 123.5390625 C-35 125 -35 125 -37 125 C-37 125.66 -37 126.32 -37 127 C-38.50390625 128.296875 -38.50390625 128.296875 -40.5625 129.75 C-43.39381655 131.79957251 -46.11254846 133.89331764 -48.75 136.1875 C-55.44734252 142 -55.44734252 142 -58 142 C-58 142.66 -58 143.32 -58 144 C-60.475 144.99 -60.475 144.99 -63 146 C-63 146.66 -63 147.32 -63 148 C-63.66 148 -64.32 148 -65 148 C-65 148.66 -65 149.32 -65 150 C-66.46875 151.296875 -66.46875 151.296875 -68.5 152.75 C-70.74292662 154.36570113 -72.96905197 155.97550183 -75.13671875 157.69140625 C-81.49632052 162.71852003 -81.49632052 162.71852003 -86 163 C-86 163.66 -86 164.32 -86 165 C-88.05824429 165.84378975 -90.12179786 166.67463622 -92.1875 167.5 C-93.33605469 167.9640625 -94.48460937 168.428125 -95.66796875 168.90625 C-98.76210266 169.92190943 -100.8015174 170.13257959 -104 170 C-107.11785113 170.64644661 -107.11785113 170.64644661 -108 173 C-108.99 172.67 -109.98 172.34 -111 172 C-111 171.34 -111 170.68 -111 170 C-111.76441406 170.03480469 -112.52882813 170.06960938 -113.31640625 170.10546875 C-129.0871033 170.50400622 -140.70480567 166.93939974 -154 159 C-154 158.34 -154 157.68 -154 157 C-154.66 157 -155.32 157 -156 157 C-156 156.34 -156 155.68 -156 155 C-156.70125 154.938125 -157.4025 154.87625 -158.125 154.8125 C-162.03854278 153.70649878 -163.9658023 151.69706462 -167 149 C-167.66 148.67 -168.32 148.34 -169 148 C-169 147.34 -169 146.68 -169 146 C-170.32 145.34 -171.64 144.68 -173 144 C-173 143.34 -173 142.68 -173 142 C-173.99 142 -174.98 142 -176 142 C-176 141.34 -176 140.68 -176 140 C-176.53625 139.7525 -177.0725 139.505 -177.625 139.25 C-187.7601683 133.9157009 -191.40875492 125.59390514 -195.4375 115.1875 C-197.98687668 106.86615792 -198.74027936 96.53611541 -195.6875 88.25 C-192.01491285 81.37055233 -185.43630055 74.29086703 -179 70 C-178.505 68.515 -178.505 68.515 -178 67 C-176.66666667 66 -175.33333333 65 -174 64 C-173.67 63.01 -173.34 62.02 -173 61 C-172.01 61 -171.02 61 -170 61 C-170 61.66 -170 62.32 -170 63 C-169.34 63 -168.68 63 -168 63 C-168 62.34 -168 61.68 -168 61 C-167.01 61 -166.02 61 -165 61 C-165 61.66 -165 62.32 -165 63 C-164.4225 63.2475 -163.845 63.495 -163.25 63.75 C-160.51630719 65.26871823 -158.90999004 66.49725443 -157 69 C-156.11969541 72.41287316 -155.37046584 75.74093167 -157 79 C-160.0625 79.625 -160.0625 79.625 -163 80 C-163.495 81.485 -163.495 81.485 -164 83 C-166.475 83.495 -166.475 83.495 -169 84 C-169 84.66 -169 85.32 -169 86 C-169.99 86 -170.98 86 -172 86 C-172.2475 86.53625 -172.495 87.0725 -172.75 87.625 C-174 90 -174 90 -176.125 92.625 C-178.69092702 97.24366864 -178.498828 100.83471651 -178 106 C-177.94070312 106.68320312 -177.88140625 107.36640625 -177.8203125 108.0703125 C-175.78088713 120.35660679 -162.28006735 129.97014367 -153 137 C-152.34 137.33 -151.68 137.66 -151 138 C-151 138.66 -151 139.32 -151 140 C-149.68 140.33 -148.36 140.66 -147 141 C-147 141.66 -147 142.32 -147 143 C-145.9790625 143.3403125 -145.9790625 143.3403125 -144.9375 143.6875 C-142 145 -142 145 -138.8125 147.375 C-129.43665538 154.19013007 -119.40815382 155.23517949 -108.0625 154.875 C-104.04163955 153.72618273 -102.11584334 151.76177024 -99 149 C-98.01 149 -97.02 149 -96 149 C-96 148.34 -96 147.68 -96 147 C-92.09258167 143.97490194 -87.66861981 141.60483806 -83 140 C-83 139.34 -83 138.68 -83 138 C-81.02 137.34 -79.04 136.68 -77 136 C-77 135.34 -77 134.68 -77 134 C-75.35546875 132.4921875 -75.35546875 132.4921875 -73.1875 130.875 C-72.47980469 130.33617187 -71.77210938 129.79734375 -71.04296875 129.2421875 C-69 128 -69 128 -66 128 C-66 127.34 -66 126.68 -66 126 C-61.61538462 123 -61.61538462 123 -59 123 C-59 122.34 -59 121.68 -59 121 C-58.34 121 -57.68 121 -57 121 C-57 120.34 -57 119.68 -57 119 C-53.50227094 115.74629855 -50.60139641 113.48868707 -46 112 C-46 111.34 -46 110.68 -46 110 C-45.34 110 -44.68 110 -44 110 C-44 109.34 -44 108.68 -44 108 C-42.3125 106.484375 -42.3125 106.484375 -40 104.75 C-39.18402344 104.13511719 -38.36804688 103.52023437 -37.52734375 102.88671875 C-36.69332031 102.26410156 -35.85929688 101.64148438 -35 101 C-34.23816406 100.40832031 -33.47632813 99.81664062 -32.69140625 99.20703125 C-31.98886719 98.66433594 -31.28632813 98.12164062 -30.5625 97.5625 C-29.92441406 97.06878906 -29.28632813 96.57507813 -28.62890625 96.06640625 C-27 95 -27 95 -25 95 C-25 94.34 -25 93.68 -25 93 C-24.34 93 -23.68 93 -23 93 C-23 92.34 -23 91.68 -23 91 C-20.525 90.01 -20.525 90.01 -18 89 C-18 88.34 -18 87.68 -18 87 C-16.1350189 85.45923412 -14.27421549 84.03246762 -12.3125 82.625 C-7.70134841 79.25860052 -7.70134841 79.25860052 -3.23046875 75.7109375 C-1 74 -1 74 1 74 C1 73.34 1 72.68 1 72 C1.969375 71.5875 2.93875 71.175 3.9375 70.75 C7.12260099 69.35100832 7.12260099 69.35100832 7.875 66.8125 C7.91625 66.214375 7.9575 65.61625 8 65 C8.99 65 9.98 65 11 65 C11.33 64.01 11.66 63.02 12 62 C12.66 62 13.32 62 14 62 C14 61.34 14 60.68 14 60 C15.375 58.375 15.375 58.375 17 57 C17.66 57 18.32 57 19 57 C24.91959394 47.16609483 24.91959394 47.16609483 26 36 C23.27580209 28.0801669 19.48359114 22.3448932 12.23046875 18.00390625 C7.98687069 16.09391553 3.59034419 16 -1 16 C-2.52091999 16.79451044 -4.01850696 17.63419238 -5.5 18.5 C-9.77777778 21 -9.77777778 21 -12 21 C-12 20.34 -12 19.68 -12 19 C-12.66 19.33 -13.32 19.66 -14 20 C-14.33926947 22.33247761 -14.67240066 24.66585471 -15 27 C-15.66 27.66 -16.32 28.32 -17 29 C-18.32 29 -19.64 29 -21 29 C-21.99 31.31 -22.98 33.62 -24 36 C-25.32 36 -26.64 36 -28 36 C-28.1546875 36.9590625 -28.1546875 36.9590625 -28.3125 37.9375 C-28.6528125 38.9584375 -28.6528125 38.9584375 -29 40 C-29.99 40.33 -30.98 40.66 -32 41 C-32.804375 41.804375 -33.60875 42.60875 -34.4375 43.4375 C-36.64973661 45.64973661 -38.15760017 46.84198526 -41 48 C-41 48.66 -41 49.32 -41 50 C-42.32 50.33 -43.64 50.66 -45 51 C-45 51.66 -45 52.32 -45 53 C-45.66 53 -46.32 53 -47 53 C-47 53.66 -47 54.32 -47 55 C-49.5614657 57.29648649 -50.47967572 58 -54 58 C-54 57.34 -54 56.68 -54 56 C-53.01 56 -52.02 56 -51 56 C-51 55.34 -51 54.68 -51 54 C-50.01 53.34 -49.02 52.68 -48 52 C-48 50.68 -48 49.36 -48 48 C-47.34 47.01 -46.68 46.02 -46 45 C-46.99 45 -47.98 45 -49 45 C-49.33 45.66 -49.66 46.32 -50 47 C-52.875 48.25 -52.875 48.25 -56 49 C-56.99 48.34 -57.98 47.68 -59 47 C-59 46.34 -59 45.68 -59 45 C-59.99 45 -60.98 45 -62 45 C-62.66 44.01 -63.32 43.02 -64 42 C-64.33 42 -64.66 42 -65 42 C-65.05787207 39.16426872 -65.0389516 37.58738909 -64 35 C-61.27889124 32.24700325 -58.31270441 29.99977936 -55 28 C-54.34 28 -53.68 28 -53 28 C-53 27.34 -53 26.68 -53 26 C-51.68463632 25.06539949 -50.3579297 24.14446294 -48.9921875 23.28515625 C-45.62980736 21.11609141 -42.4166298 18.73078149 -39.171875 16.390625 C-37 15 -37 15 -35 15 C-35 14.34 -35 13.68 -35 13 C-33.02 12.34 -31.04 11.68 -29 11 C-29 10.34 -29 9.68 -29 9 C-28.46246094 9.23460937 -27.92492187 9.46921875 -27.37109375 9.7109375 C-23.81123761 10.14492326 -22.03718687 8.5230978 -19.0625 6.625 C-13.79423556 3.28155025 -9.90604586 1.83210092 -3.6875 1.9375 C-2.470625 1.958125 -1.25375 1.97875 0 2 C0 1.34 0 0.68 0 0 Z M-20 23 C-19.67 23.99 -19.34 24.98 -19 26 C-19 25.01 -19 24.02 -19 23 C-19.33 23 -19.66 23 -20 23 Z M-24 26 C-24.66 26.66 -25.32 27.32 -26 28 C-24.68 27.67 -23.36 27.34 -22 27 C-22.66 26.67 -23.32 26.34 -24 26 Z M-32 32 C-31.01 32.33 -30.02 32.66 -29 33 C-28.34 32.67 -27.68 32.34 -27 32 C-27 31.34 -27 30.68 -27 30 C-29.32357511 29.81509993 -29.32357511 29.81509993 -32 32 Z M-39 37 C-39.66 37.66 -40.32 38.32 -41 39 C-41.66 38.67 -42.32 38.34 -43 38 C-43 38.66 -43 39.32 -43 40 C-43.99 40.33 -44.98 40.66 -46 41 C-46 41.66 -46 42.32 -46 43 C-44.20800528 43.78282648 -44.20800528 43.78282648 -42 44 C-39.75244247 42.6483633 -39.75244247 42.6483633 -38 41 C-38.33 39.68 -38.66 38.36 -39 37 Z M-37 37 C-36 39 -36 39 -36 39 Z M-41 44 C-41.66 45.32 -42.32 46.64 -43 48 C-42.34 48 -41.68 48 -41 48 C-40.34 46.68 -39.68 45.36 -39 44 C-39.66 44 -40.32 44 -41 44 Z M41 57 C42 59 42 59 42 59 Z M-181 99 C-181 102.63 -181 106.26 -181 110 C-180.67 110 -180.34 110 -180 110 C-180 106.37 -180 102.74 -180 99 C-180.33 99 -180.66 99 -181 99 Z " fill="#EFEEEE" transform="translate(368,207)"/>
<path d="M0 0 C1.32 0 2.64 0 4 0 C4 0.66 4 1.32 4 2 C4.598125 1.814375 5.19625 1.62875 5.8125 1.4375 C8 1 8 1 11 2 C11 2.99 11 3.98 11 5 C11.6084375 5.10054688 12.216875 5.20109375 12.84375 5.3046875 C23.23112483 7.53491798 33.48339083 13.47299441 41 21 C41.66 21.33 42.32 21.66 43 22 C43 22.66 43 23.32 43 24 C43.556875 24.268125 44.11375 24.53625 44.6875 24.8125 C47.21225334 26.10899496 49.63714484 27.42476323 52 29 C52 29.66 52 30.32 52 31 C52.66 31 53.32 31 54 31 C54 31.66 54 32.32 54 33 C54.66 33 55.32 33 56 33 C56 33.66 56 34.32 56 35 C57.32 35.66 58.64 36.32 60 37 C60 37.66 60 38.32 60 39 C60.99 39 61.98 39 63 39 C64.65 42.3 66.3 45.6 68 49 C67.34 49 66.68 49 66 49 C66.65097656 49.91265625 67.30195313 50.8253125 67.97265625 51.765625 C70.885407 56.87354818 70.54937046 62.01212798 70.4375 67.75 C70.44458984 68.79027344 70.45167969 69.83054687 70.45898438 70.90234375 C70.39467032 78.55076852 70.39467032 78.55076852 68.57836914 80.61816406 C68.05750732 81.07416992 67.53664551 81.53017578 67 82 C65.95377125 83.97620986 64.94560065 85.9737129 64 88 C63.34 88 62.68 88 62 88 C62 88.66 62 89.32 62 90 C61.34 90 60.68 90 60 90 C60.33 89.01 60.66 88.02 61 87 C60.34 87 59.68 87 59 87 C58.67 87.99 58.34 88.98 58 90 C57.34 90 56.68 90 56 90 C56 90.99 56 91.98 56 93 C56.66 93.33 57.32 93.66 58 94 C55 96 55 96 53 96 C51.66216607 96.31478446 50.32796291 96.64587656 49 97 C49.99 97.66 50.98 98.32 52 99 C49.12447975 102.30152325 47.33717088 103.47107672 43 104 C42.071875 104.185625 41.14375 104.37125 40.1875 104.5625 C39.465625 104.706875 38.74375 104.85125 38 105 C37.67 104.34 37.34 103.68 37 103 C35.66923011 102.65657551 34.33568021 102.32380126 33 102 C30.8614515 99.8614515 30.57344937 98.86724686 30 96 C29.34 96 28.68 96 28 96 C28.5590888 92.75728494 29.4132178 91.06942576 32 89 C32.66 89 33.32 89 34 89 C34.33 88.01 34.66 87.02 35 86 C39.45714286 82 39.45714286 82 42 82 C42 81.34 42 80.68 42 80 C43.4609375 78.703125 43.4609375 78.703125 45.375 77.25 C48.7262913 74.48095325 50.12775208 72.3612396 51 68 C51 67.01 51 66.02 51 65 C50.01 64.67 49.02 64.34 48 64 C48 63.34 48 62.68 48 62 C48.66 62 49.32 62 50 62 C50.33 59.69 50.66 57.38 51 55 C50.34 55 49.68 55 49 55 C48.67 53.35 48.34 51.7 48 50 C47.34 50 46.68 50 46 50 C46 49.01 46 48.02 46 47 C45.34 47 44.68 47 44 47 C44 46.34 44 45.68 44 45 C43.34 45 42.68 45 42 45 C41.34 44.34 40.68 43.68 40 43 C39.34 43 38.68 43 38 43 C37.938125 42.2575 37.87625 41.515 37.8125 40.75 C36.74359613 37.13217152 35.09234428 36.06156286 32 34 C31.01 33.67 30.02 33.34 29 33 C29 32.01 29 31.02 29 30 C28.2575 29.9175 27.515 29.835 26.75 29.75 C23.45697405 28.85190201 22.14023212 27.61583926 20 25 C20 24.34 20 23.68 20 23 C19.2575 23.04125 18.515 23.0825 17.75 23.125 C14.91241048 22.99601866 13.41226062 22.42948778 11 21 C11 20.34 11 19.68 11 19 C10.46375 18.87625 9.9275 18.7525 9.375 18.625 C7 18 7 18 4.23828125 16.984375 C-4.1636162 14.43036034 -12.46323012 15.63653189 -20.5625 18.63671875 C-23.58907866 20.32946867 -25.57423139 22.52695254 -28 25 C-30.16121829 26.70659416 -32.41163028 28.26346523 -34.6875 29.8125 C-35.55858398 30.42254883 -35.55858398 30.42254883 -36.44726562 31.04492188 C-40.74330357 34 -40.74330357 34 -43 34 C-43 34.66 -43 35.32 -43 36 C-44.86680868 37.38249511 -46.79549792 38.68203634 -48.75 39.9375 C-53.09264947 42.72555107 -53.09264947 42.72555107 -57.265625 45.75390625 C-59 47 -59 47 -61 47 C-61 47.66 -61 48.32 -61 49 C-66.41176471 53 -66.41176471 53 -69 53 C-69 53.66 -69 54.32 -69 55 C-71.0153828 56.39361577 -73.02941836 57.67447388 -75.125 58.9375 C-81.28313579 62.74691069 -86.96057287 66.95111075 -92.55517578 71.54467773 C-96.80436343 75 -96.80436343 75 -99 75 C-99 75.66 -99 76.32 -99 77 C-99.99 77 -100.98 77 -102 77 C-102.66 78.32 -103.32 79.64 -104 81 C-104.66 81 -105.32 81 -106 81 C-106 81.66 -106 82.32 -106 83 C-106.99 83.33 -107.98 83.66 -109 84 C-109.474375 84.495 -109.94875 84.99 -110.4375 85.5 C-112.25193719 87.24185971 -113.55559077 87.57855013 -116 88 C-116 88.66 -116 89.32 -116 90 C-120.38461538 93 -120.38461538 93 -123 93 C-123 93.66 -123 94.32 -123 95 C-123.969375 95.2475 -124.93875 95.495 -125.9375 95.75 C-126.948125 96.1625 -127.95875 96.575 -129 97 C-129.96877057 99.03243548 -129.96877057 99.03243548 -130 101 C-130.66 101 -131.32 101 -132 101 C-132 101.66 -132 102.32 -132 103 C-134.97 103.99 -134.97 103.99 -138 105 C-138.103125 105.721875 -138.20625 106.44375 -138.3125 107.1875 C-139 110 -139 110 -140.5625 112.125 C-142.81415706 116.62831411 -142.67515091 121.06341268 -142 126 C-140.27589884 129.42223531 -140.27589884 129.42223531 -138 132 C-137.5359375 133.11375 -137.5359375 133.11375 -137.0625 134.25 C-135.55063113 136.74013697 -133.69504911 137.1016503 -131 138 C-130.67 138.33 -130.34 138.66 -130 139 C-122.48901178 139.70884099 -116.04329548 138.5667541 -109 136 C-109 135.34 -109 134.68 -109 134 C-107.49373047 133.18789063 -107.49373047 133.18789063 -105.95703125 132.359375 C-101.87677115 130.0289721 -98.31626497 127.22005253 -94.6875 124.25 C-88.26860687 119 -88.26860687 119 -86 119 C-86 118.34 -86 117.68 -86 117 C-84.35 116.34 -82.7 115.68 -81 115 C-81 114.34 -81 113.68 -81 113 C-77.4354337 109.94465746 -73.93369901 108.15825407 -69.3125 107.375 C-65.11416031 108.16713956 -63.60695301 109.6820598 -61 113 C-61 113.66 -61 114.32 -61 115 C-60.34 115 -59.68 115 -59 115 C-58.9189794 117.10353495 -58.86080093 119.20795952 -58.8125 121.3125 C-58.77769531 122.48425781 -58.74289063 123.65601563 -58.70703125 124.86328125 C-59 128 -59 128 -60.38671875 129.91796875 C-62 131 -62 131 -64 131 C-64.33 129.68 -64.66 128.36 -65 127 C-67.97 129.475 -67.97 129.475 -71 132 C-70.01 132 -69.02 132 -68 132 C-67.34 132 -66.68 132 -66 132 C-67 135 -67 135 -68.8125 136.3125 C-71 137 -71 137 -73.125 136.125 C-73.74375 135.75375 -74.3625 135.3825 -75 135 C-75.66 135 -76.32 135 -77 135 C-77 135.99 -77 136.98 -77 138 C-81 140 -85 142 -89 144 C-89 144.99 -89 145.98 -89 147 C-88.34 147.33 -87.68 147.66 -87 148 C-87 148.99 -87 149.98 -87 151 C-88.8125 151.6875 -88.8125 151.6875 -91 152 C-92.625 150.5625 -92.625 150.5625 -94 149 C-94.66 149 -95.32 149 -96 149 C-94.68 150.65 -93.36 152.3 -92 154 C-92.99 154.33 -93.98 154.66 -95 155 C-95 155.66 -95 156.32 -95 157 C-95.66 157 -96.32 157 -97 157 C-97 155.68 -97 154.36 -97 153 C-99.76276177 153.52268466 -102.3260876 154.10869587 -105 155 C-104.67 156.32 -104.34 157.64 -104 159 C-106.475 159.99 -106.475 159.99 -109 161 C-109 160.01 -109 159.02 -109 158 C-108.34 158 -107.68 158 -107 158 C-107 157.34 -107 156.68 -107 156 C-107.59425781 156.20496094 -108.18851563 156.40992188 -108.80078125 156.62109375 C-115.20772565 158.70359978 -121.28237754 159.62963678 -128 160 C-128 160.66 -128 161.32 -128 162 C-128.99 162 -129.98 162 -131 162 C-131 161.01 -131 160.02 -131 159 C-131.89203125 158.81824219 -132.7840625 158.63648438 -133.703125 158.44921875 C-134.87359375 158.19785156 -136.0440625 157.94648438 -137.25 157.6875 C-138.41015625 157.44386719 -139.5703125 157.20023438 -140.765625 156.94921875 C-143.86729745 156.03894531 -145.68706535 155.22705836 -148 153 C-148 152.34 -148 151.68 -148 151 C-149.32 150.67 -150.64 150.34 -152 150 C-152 149.34 -152 148.68 -152 148 C-152.8971875 147.6596875 -152.8971875 147.6596875 -153.8125 147.3125 C-156.59348403 145.64390958 -157.5641916 143.8716168 -159 141 C-159 140.34 -159 139.68 -159 139 C-159.66 139 -160.32 139 -161 139 C-164.06717467 130.21838681 -164.29499561 122.18856709 -164 113 C-164 111.68 -164 110.36 -164 109 C-163.54102298 106.77068303 -163.01968085 105.03936171 -162 103 C-161.34 103 -160.68 103 -160 103 C-159.67 101.68 -159.34 100.36 -159 99 C-158.34 99 -157.68 99 -157 99 C-156.67 97.68 -156.34 96.36 -156 95 C-155.01 95 -154.02 95 -153 95 C-152.896875 94.360625 -152.79375 93.72125 -152.6875 93.0625 C-152.460625 92.381875 -152.23375 91.70125 -152 91 C-150.515 90.505 -150.515 90.505 -149 90 C-148.67 89.01 -148.34 88.02 -148 87 C-146 86 -144 85 -142 84 C-141.505 82.515 -141.505 82.515 -141 81 C-138.4375 79.8125 -138.4375 79.8125 -136 79 C-136.33 78.01 -136.66 77.02 -137 76 C-136.41476563 76.21527344 -135.82953125 76.43054688 -135.2265625 76.65234375 C-132.98454254 77.2320014 -132.98454254 77.2320014 -131.1484375 76.00390625 C-130.56320313 75.52824219 -129.97796875 75.05257812 -129.375 74.5625 C-126.17711172 72 -126.17711172 72 -124 72 C-124 71.34 -124 70.68 -124 70 C-124.66 70 -125.32 70 -126 70 C-126 69.34 -126 68.68 -126 68 C-123.525 67.01 -123.525 67.01 -121 66 C-120.67 66.66 -120.34 67.32 -120 68 C-119.33355469 67.50371094 -118.66710937 67.00742188 -117.98046875 66.49609375 C-113.26498511 63.02048553 -108.5401986 59.65360729 -103.5625 56.5625 C-98.38636775 53.33205878 -93.55337981 49.73656773 -88.7265625 46.015625 C-81.94186047 41 -81.94186047 41 -79 41 C-79 40.34 -79 39.68 -79 39 C-77.04402816 37.60287726 -75.0340906 36.28072371 -73 35 C-71.9275 34.2575 -70.855 33.515 -69.75 32.75 C-67 31 -67 31 -65 31 C-65 30.01 -65 29.02 -65 28 C-64.071875 27.814375 -64.071875 27.814375 -63.125 27.625 C-60.80879168 27.12802644 -60.80879168 27.12802644 -59 25 C-58.67 25 -58.34 25 -58 25 C-57.505 23.515 -57.505 23.515 -57 22 C-54 20 -54 20 -51 20 C-50.7215625 19.1646875 -50.7215625 19.1646875 -50.4375 18.3125 C-48.35889174 14.96865193 -45.39186398 12.95192172 -42 11 C-41.34 11 -40.68 11 -40 11 C-40 10.34 -40 9.68 -40 9 C-36.65119374 6.25780133 -33.32923704 4.13846219 -29 3.6875 C-28.34 3.790625 -27.68 3.89375 -27 4 C-27.99 3.34 -28.98 2.68 -30 2 C-28.00491933 1.31875294 -26.00361307 0.65572791 -24 0 C-23.01 -0.37125 -22.02 -0.7425 -21 -1.125 C-14.6108981 -2.93812351 -5.58219428 -3.72146285 0 0 Z M-38 10 C-37.67 10.66 -37.34 11.32 -37 12 C-36.67 11.34 -36.34 10.68 -36 10 C-36.66 10 -37.32 10 -38 10 Z M-63 123 C-63 124.65 -63 126.3 -63 128 C-62.34 127.34 -61.68 126.68 -61 126 C-61.66 125.01 -62.32 124.02 -63 123 Z M-92 146 C-91.01 147.485 -91.01 147.485 -90 149 C-90 148.01 -90 147.02 -90 146 C-90.66 146 -91.32 146 -92 146 Z M-132 155 C-128 156 -128 156 -128 156 Z " fill="#F2F1F2" transform="translate(252,110)"/>
<path d="M0 0 C4.79633355 1.67871674 6.07442737 3.04830611 8.75 7.3125 C8.75 9.3125 8.75 11.3125 8.75 13.3125 C8.09 13.3125 7.43 13.3125 6.75 13.3125 C6.42 14.3025 6.09 15.2925 5.75 16.3125 C4.37929422 17.2820236 2.99969206 18.24186838 1.57421875 19.12890625 C-1.25113543 20.96205896 -3.86521394 23.06549696 -6.515625 25.140625 C-8.25 26.3125 -8.25 26.3125 -10.25 26.3125 C-10.25 26.9725 -10.25 27.6325 -10.25 28.3125 C-11.9044188 29.67253823 -13.62596045 30.95151205 -15.375 32.1875 C-16.88320313 33.26064453 -16.88320313 33.26064453 -18.421875 34.35546875 C-20.47175011 35.77395967 -22.52581209 37.15762458 -24.625 38.5 C-27.5306676 40.50629429 -29.78676777 42.78768696 -32.25 45.3125 C-37.75546448 50.3125 -37.75546448 50.3125 -40.25 50.3125 C-40.25 50.9725 -40.25 51.6325 -40.25 52.3125 C-40.91 52.3125 -41.57 52.3125 -42.25 52.3125 C-42.25 52.9725 -42.25 53.6325 -42.25 54.3125 C-44.11328125 55.71484375 -44.11328125 55.71484375 -46.5625 57.25 C-49.47733567 59.08526691 -51.8395577 60.87169949 -54.25 63.3125 C-56.06015185 64.73826719 -57.89590864 66.13186001 -59.75 67.5 C-60.7090625 68.21542969 -61.668125 68.93085938 -62.65625 69.66796875 C-65.25 71.3125 -65.25 71.3125 -68.25 71.3125 C-69.24 73.2925 -69.24 73.2925 -70.25 75.3125 C-71.57 75.3125 -72.89 75.3125 -74.25 75.3125 C-74.25 75.9725 -74.25 76.6325 -74.25 77.3125 C-75.735 77.8075 -75.735 77.8075 -77.25 78.3125 C-76.92 78.9725 -76.59 79.6325 -76.25 80.3125 C-78.56 80.3125 -80.87 80.3125 -83.25 80.3125 C-82.92 81.6325 -82.59 82.9525 -82.25 84.3125 C-91.04245011 90.17413341 -106.24765225 87.37738873 -116.25 86.3125 C-116.25 85.6525 -116.25 84.9925 -116.25 84.3125 C-117.1471875 84.126875 -117.1471875 84.126875 -118.0625 83.9375 C-120.25 83.3125 -120.25 83.3125 -123.25 81.3125 C-123.25 80.6525 -123.25 79.9925 -123.25 79.3125 C-124.054375 78.94125 -124.054375 78.94125 -124.875 78.5625 C-129.400692 76.18055684 -133.62634213 73.83102188 -136.25 69.3125 C-136.25 68.3225 -136.25 67.3325 -136.25 66.3125 C-137.36375 65.94125 -137.36375 65.94125 -138.5 65.5625 C-141.48088821 64.20755081 -142.99251979 62.64280215 -145.25 60.3125 C-145.91 60.003125 -146.57 59.69375 -147.25 59.375 C-150.01424987 57.90649226 -151.37726284 55.78934592 -153.25 53.3125 C-153.848125 52.879375 -154.44625 52.44625 -155.0625 52 C-156.79586005 49.53680414 -156.50327692 47.33936809 -156.02734375 44.45703125 C-154.61064046 40.54863876 -151.78264637 37.47012045 -148.25 35.3125 C-144.43785944 35.45112329 -142.23222671 37.78117423 -139.5 40.25 C-138.70078125 40.96027344 -137.9015625 41.67054688 -137.078125 42.40234375 C-135.25 44.3125 -135.25 44.3125 -135.25 46.3125 C-134.693125 46.539375 -134.13625 46.76625 -133.5625 47 C-129.82026102 49.12397347 -127.1459174 52.30098035 -124.3125 55.5 C-121.79704429 57.71055198 -119.45351809 58.43881325 -116.25 59.3125 C-116.25 59.9725 -116.25 60.6325 -116.25 61.3125 C-111.9460081 63.06099671 -107.60249409 64.6895361 -103.25 66.3125 C-103.25 66.9725 -103.25 67.6325 -103.25 68.3125 C-102.734375 68.003125 -102.21875 67.69375 -101.6875 67.375 C-98.56938385 66.01582116 -95.62010531 65.76184737 -92.25 65.3125 C-89.56443473 64.7057786 -86.91331615 64.01337267 -84.25 63.3125 C-84.25 62.6525 -84.25 61.9925 -84.25 61.3125 C-82.428437 60.14395015 -80.59968927 58.98553487 -78.7421875 57.875 C-74.96925514 55.50952517 -71.43465603 52.83625282 -67.86328125 50.1796875 C-65.25 48.3125 -65.25 48.3125 -62.48046875 46.6953125 C-60.12886177 45.50734273 -60.12886177 45.50734273 -59.25 43.3125 C-58.363125 42.879375 -57.47625 42.44625 -56.5625 42 C-53.90234833 40.6448284 -52.19484627 39.53403091 -50 37.625 C-47.25 35.3125 -47.25 35.3125 -45.25 35.3125 C-45.25 34.6525 -45.25 33.9925 -45.25 33.3125 C-42.128419 29.74497886 -39.60781513 28.00720588 -35.25 26.3125 C-34.755 24.8275 -34.755 24.8275 -34.25 23.3125 C-32.32421875 21.8125 -32.32421875 21.8125 -29.9375 20.3125 C-27.57598173 18.81361898 -25.29022699 17.34381182 -23.08203125 15.625 C-21.25 14.3125 -21.25 14.3125 -19.25 14.3125 C-18.92 13.3225 -18.59 12.3325 -18.25 11.3125 C-15.6875 10.125 -15.6875 10.125 -13.25 9.3125 C-13.25 8.6525 -13.25 7.9925 -13.25 7.3125 C-9.60709649 3.5093762 -5.53977776 -0.35945123 0 0 Z M-134.25 67.3125 C-134.25 68.3025 -134.25 69.2925 -134.25 70.3125 C-133.26 69.9825 -132.27 69.6525 -131.25 69.3125 C-131.91 69.3125 -132.57 69.3125 -133.25 69.3125 C-133.58 68.6525 -133.91 67.9925 -134.25 67.3125 Z " fill="#F0F0F0" transform="translate(356.25,255.6875)"/>
<path d="M0 0 C0 0.66 0 1.32 0 2 C0.61875 2.144375 1.2375 2.28875 1.875 2.4375 C4 3 4 3 6 4 C6 4.66 6 5.32 6 6 C6.53625 6.268125 7.0725 6.53625 7.625 6.8125 C10.41666667 8.20833333 13.20833333 9.60416667 16 11 C16 11.66 16 12.32 16 13 C16.763125 13.28875 17.52625 13.5775 18.3125 13.875 C21 15 21 15 24 17 C24 17.66 24 18.32 24 19 C24.639375 19.309375 25.27875 19.61875 25.9375 19.9375 C28 21 28 21 29 22 C29.5351509 25.21090542 29.53124861 27.22558511 27.66015625 29.953125 C26.15676472 31.69352178 24.62116183 33.36918839 23 35 C15.75433258 34.12173728 9.6333864 29.36874864 4 25 C4 24.34 4 23.68 4 23 C2.824375 22.5359375 2.824375 22.5359375 1.625 22.0625 C-1 21 -1 21 -3 20 C-3 19.34 -3 18.68 -3 18 C-3.70898438 17.73316406 -4.41796875 17.46632812 -5.1484375 17.19140625 C-8.10742907 15.95511525 -10.82864203 14.50515522 -13.625 12.9375 C-19.91745284 9.41200245 -24.78998492 7.9966964 -32 9 C-39.18759526 11.59744822 -55.3624715 18.72494299 -59 26 C-59.66 26 -60.32 26 -61 26 C-61 26.66 -61 27.32 -61 28 C-61.66 28 -62.32 28 -63 28 C-63.433125 28.45375 -63.86625 28.9075 -64.3125 29.375 C-66.35628817 31.34309231 -68.34530324 32.06726871 -71 33 C-71 33.99 -71 34.98 -71 36 C-71.70125 36.061875 -72.4025 36.12375 -73.125 36.1875 C-75.97800572 36.99378423 -77.01742433 37.67501404 -79.1875 39.5625 C-82 42 -82 42 -84 42 C-84 42.66 -84 43.32 -84 44 C-84.66 44 -85.32 44 -86 44 C-86 44.66 -86 45.32 -86 46 C-88.08203125 47.62109375 -88.08203125 47.62109375 -90.8125 49.4375 C-94.44786342 51.84611068 -94.44786342 51.84611068 -97.69921875 54.72265625 C-99 56 -99 56 -101 56 C-101 56.66 -101 57.32 -101 58 C-102.97946592 59.36363208 -104.9819245 60.69418644 -107 62 C-108.79394446 63.62351109 -108.79394446 63.62351109 -110 65 C-114.15735978 62.50558413 -117.07040806 60.54021632 -119 56 C-119 52.99629222 -118.00005629 52.00006333 -116 49.75 C-115.01096257 48.82151589 -114.00891933 47.90684043 -113 47 C-112.27683594 46.34257812 -111.55367187 45.68515625 -110.80859375 45.0078125 C-100.79441392 36 -100.79441392 36 -98 36 C-98 35.34 -98 34.68 -98 34 C-96.40618494 32.70409429 -94.74675218 31.48847306 -93.0625 30.3125 C-88.50956641 27.0948583 -84.10874559 23.75898377 -79.77734375 20.25 C-78 19 -78 19 -76 19 C-76 18.34 -76 17.68 -76 17 C-75.34 17 -74.68 17 -74 17 C-74 16.34 -74 15.68 -74 15 C-71.98046875 13.5546875 -71.98046875 13.5546875 -69.1875 11.875 C-65.19053396 9.41768159 -61.4134644 6.8499192 -57.6875 4 C-38.84504809 -9.58779631 -20.60019199 -11.06306607 0 0 Z " fill="#F1F0F0" transform="translate(264,158)"/>
<path d="M0 0 C-1.26916725 2.53833449 -2.41624809 2.89400901 -4.9375 4.125 C-5.64777344 4.47820312 -6.35804688 4.83140625 -7.08984375 5.1953125 C-9 6 -9 6 -11 6 C-11 5.34 -11 4.68 -11 4 C-11.66 4.33 -12.32 4.66 -13 5 C-13.33926947 7.33247761 -13.67240066 9.66585471 -14 12 C-14.66 12.66 -15.32 13.32 -16 14 C-17.32 14 -18.64 14 -20 14 C-20.99 16.31 -21.98 18.62 -23 21 C-24.32 21 -25.64 21 -27 21 C-27.103125 21.639375 -27.20625 22.27875 -27.3125 22.9375 C-27.539375 23.618125 -27.76625 24.29875 -28 25 C-28.99 25.33 -29.98 25.66 -31 26 C-31.804375 26.804375 -32.60875 27.60875 -33.4375 28.4375 C-35.64973661 30.64973661 -37.15760017 31.84198526 -40 33 C-40 33.66 -40 34.32 -40 35 C-41.98 35.495 -41.98 35.495 -44 36 C-44 36.66 -44 37.32 -44 38 C-44.66 38 -45.32 38 -46 38 C-46 38.66 -46 39.32 -46 40 C-48.5614657 42.29648649 -49.47967572 43 -53 43 C-53 42.34 -53 41.68 -53 41 C-52.01 41 -51.02 41 -50 41 C-50 40.34 -50 39.68 -50 39 C-49.01 38.34 -48.02 37.68 -47 37 C-47 35.68 -47 34.36 -47 33 C-46.34 32.01 -45.68 31.02 -45 30 C-45 29.34 -45 28.68 -45 28 C-43.8553125 27.7834375 -43.8553125 27.7834375 -42.6875 27.5625 C-39.91827092 27.0367406 -39.91827092 27.0367406 -37 26 C-37.33 25.01 -37.66 24.02 -38 23 C-38.99 23.66 -39.98 24.32 -41 25 C-41 23.68 -41 22.36 -41 21 C-38.69140625 18.8515625 -38.69140625 18.8515625 -35.5625 16.625 C-35.02206055 16.23578369 -34.48162109 15.84656738 -33.92480469 15.44555664 C-29.36220948 12.18242623 -24.71602709 9.03683563 -20 6 C-19.34 7.32 -18.68 8.64 -18 10 C-18 8.02 -18 6.04 -18 4 C-6.66287016 -1.92482916 -6.66287016 -1.92482916 0 0 Z M-23 11 C-23.66 11.66 -24.32 12.32 -25 13 C-23.68 12.67 -22.36 12.34 -21 12 C-21.66 11.67 -22.32 11.34 -23 11 Z M-31 17 C-30.01 17.33 -29.02 17.66 -28 18 C-27.34 17.67 -26.68 17.34 -26 17 C-26 16.34 -26 15.68 -26 15 C-28.32357511 14.81509993 -28.32357511 14.81509993 -31 17 Z M-36 22 C-35 24 -35 24 -35 24 Z M-40 29 C-40.66 30.32 -41.32 31.64 -42 33 C-41.34 33 -40.68 33 -40 33 C-39.34 31.68 -38.68 30.36 -38 29 C-38.66 29 -39.32 29 -40 29 Z " fill="#5E5C5D" transform="translate(367,222)"/>
<path d="M0 0 C5.7407774 0.45061047 9.48709622 2.81648841 14.1875 5.875 C14.89841797 6.32230469 15.60933594 6.76960938 16.34179688 7.23046875 C19.56891323 9.28878003 22.29967932 11.28321108 25 14 C25.66 14.33 26.32 14.66 27 15 C27 15.66 27 16.32 27 17 C27.556875 17.268125 28.11375 17.53625 28.6875 17.8125 C31.21225334 19.10899496 33.63714484 20.42476323 36 22 C36 22.66 36 23.32 36 24 C36.66 24 37.32 24 38 24 C38 24.66 38 25.32 38 26 C38.66 26 39.32 26 40 26 C40 26.66 40 27.32 40 28 C41.32 28.66 42.64 29.32 44 30 C44 30.66 44 31.32 44 32 C44.99 32 45.98 32 47 32 C48.65 35.3 50.3 38.6 52 42 C51.34 42 50.68 42 50 42 C50.33 42.99 50.66 43.98 51 45 C50.34 45 49.68 45 49 45 C48.65388672 44.22076172 48.65388672 44.22076172 48.30078125 43.42578125 C46.10406664 38.72845871 43.88213279 35.52921163 40 32 C39.40058594 31.3709375 38.80117188 30.741875 38.18359375 30.09375 C34.25060263 25.96834248 30.47230642 22.75976853 25.46875 20.0078125 C24.9840625 19.67523438 24.499375 19.34265625 24 19 C24 18.34 24 17.68 24 17 C23.29488281 16.7525 22.58976562 16.505 21.86328125 16.25 C18.63112557 14.83896341 16.03671098 13.0749274 13.1875 11 C12.21167969 10.29875 11.23585938 9.5975 10.23046875 8.875 C9.49441406 8.25625 8.75835937 7.6375 8 7 C8 6.34 8 5.68 8 5 C7.13375 4.814375 7.13375 4.814375 6.25 4.625 C3.97664233 3.99351176 2.0746471 3.11141809 0 2 C0 1.34 0 0.68 0 0 Z " fill="#838382" transform="translate(268,117)"/>
<path d="M0 0 C1.98 0.66 3.96 1.32 6 2 C1.50487137 10.80296023 -4.70250362 17.64120026 -13 23 C-13.1953125 16.9453125 -13.1953125 16.9453125 -13 15 C-12.34 14.34 -11.68 13.68 -11 13 C-11 12.01 -11 11.02 -11 10 C-9.58345224 8.7481671 -8.15750598 7.5038764 -6.66796875 6.33984375 C-4.25328386 4.40017884 -2.15669799 2.22013029 0 0 Z M-9 10 C-9.33 10.66 -9.66 11.32 -10 12 C-9.34 12 -8.68 12 -8 12 C-8.33 11.34 -8.66 10.68 -9 10 Z " fill="#DBDADA" transform="translate(402,265)"/>
<path d="M0 0 C-0.433125 0.8353125 -0.433125 0.8353125 -0.875 1.6875 C-2.06645793 3.99433186 -2.06645793 3.99433186 -2.8125 6.5625 C-4.32247789 9.66192829 -5.92727519 10.54045571 -9 12 C-9.66 12 -10.32 12 -11 12 C-11.33 12.66 -11.66 13.32 -12 14 C-12.66 14 -13.32 14 -14 14 C-14 14.66 -14 15.32 -14 16 C-18.455 17.485 -18.455 17.485 -23 19 C-23 19.66 -23 20.32 -23 21 C-24.28650706 21.69710731 -25.57940665 22.38242876 -26.875 23.0625 C-27.59429687 23.44535156 -28.31359375 23.82820313 -29.0546875 24.22265625 C-29.69664062 24.47917969 -30.33859375 24.73570312 -31 25 C-31.66 24.67 -32.32 24.34 -33 24 C-33.33 24.99 -33.66 25.98 -34 27 C-35.32 26.67 -36.64 26.34 -38 26 C-32.375 21 -32.375 21 -29 21 C-29 20.34 -29 19.68 -29 19 C-25.09258167 15.97490194 -20.66861981 13.60483806 -16 12 C-16 11.34 -16 10.68 -16 10 C-14.02 9.34 -12.04 8.68 -10 8 C-10 7.34 -10 6.68 -10 6 C-8.3203125 4.4921875 -8.3203125 4.4921875 -6.125 2.875 C-5.40570313 2.33617187 -4.68640625 1.79734375 -3.9453125 1.2421875 C-2 0 -2 0 0 0 Z " fill="#C3C3C3" transform="translate(301,335)"/>
<path d="M0 0 C3.59636522 -0.3345456 5.45073769 -0.36731917 8.5 1.671875 C13.4841382 6.3133537 16.52519969 12.53602209 17.44921875 19.27734375 C17.58212325 27.54809285 15.45243653 34.63882405 10 41 C9.34 41 8.68 41 8 41 C8.57275681 36.99070234 9.90839994 34.43022411 12 31 C14.46429139 24.9041213 14.8025879 20.50743344 12.25 14.4375 C9.24237879 8.16986978 5.87867743 4.74097655 0 1 C0 0.67 0 0.34 0 0 Z " fill="#B1AAA9" transform="translate(380,224)"/>
<path d="M0 0 C-1.26916725 2.53833449 -2.41624809 2.89400901 -4.9375 4.125 C-5.64777344 4.47820312 -6.35804688 4.83140625 -7.08984375 5.1953125 C-9 6 -9 6 -11 6 C-11 5.34 -11 4.68 -11 4 C-11.99 4.495 -11.99 4.495 -13 5 C-13.33926947 7.33247761 -13.67240066 9.66585471 -14 12 C-14.66 12.66 -15.32 13.32 -16 14 C-17.32 14 -18.64 14 -20 14 C-20.99 15.485 -20.99 15.485 -22 17 C-22.99 17 -23.98 17 -25 17 C-25 16.01 -25 15.02 -25 14 C-24.01 13.34 -23.02 12.68 -22 12 C-22.7425 12.474375 -23.485 12.94875 -24.25 13.4375 C-26.61050015 14.77869327 -28.36648477 15.512312 -31 16 C-31 15.01 -31 14.02 -31 13 C-28.875 11.5625 -28.875 11.5625 -26 10 C-23.99419671 8.67541292 -21.99284138 7.3440093 -20 6 C-19.34 7.32 -18.68 8.64 -18 10 C-18 8.02 -18 6.04 -18 4 C-6.66287016 -1.92482916 -6.66287016 -1.92482916 0 0 Z " fill="#686364" transform="translate(367,222)"/>
<path d="M0 0 C0.495 0.99 0.495 0.99 1 2 C-11.45224719 13 -11.45224719 13 -14 13 C-14 13.66 -14 14.32 -14 15 C-14.66 15 -15.32 15 -16 15 C-16 15.66 -16 16.32 -16 17 C-17.86328125 18.40234375 -17.86328125 18.40234375 -20.3125 19.9375 C-23.22733567 21.77276691 -25.5895577 23.55919949 -28 26 C-29.81015185 27.42576719 -31.64590864 28.81936001 -33.5 30.1875 C-34.4590625 30.90292969 -35.418125 31.61835938 -36.40625 32.35546875 C-39 34 -39 34 -42 34 C-42.66 35.32 -43.32 36.64 -44 38 C-45.32 37.67 -46.64 37.34 -48 37 C-47.505 36.505 -47.505 36.505 -47 36 C-47.33 35.34 -47.66 34.68 -48 34 C-47.2575 33.7525 -46.515 33.505 -45.75 33.25 C-42.79875938 31.90852699 -41.15185026 30.39094474 -39 28 C-39 28.66 -39 29.32 -39 30 C-36.04199472 29.29231642 -36.04199472 29.29231642 -33 28 C-32.30062468 26.68352881 -31.63270867 25.34977849 -31 24 C-28.375 22.75 -28.375 22.75 -26 22 C-26 21.34 -26 20.68 -26 20 C-23.4385343 17.70351351 -22.52032428 17 -19 17 C-18.67 16.01 -18.34 15.02 -18 14 C-17.01 14 -16.02 14 -15 14 C-14.34 12.68 -13.68 11.36 -13 10 C-12.01 10 -11.02 10 -10 10 C-9.67 9.01 -9.34 8.02 -9 7 C-8.195625 6.690625 -7.39125 6.38125 -6.5625 6.0625 C-3.52314752 4.80228068 -3.22944819 3.93176107 -2 1 C-1.34 0.67 -0.68 0.34 0 0 Z " fill="#8F8D8E" transform="translate(330,293)"/>
<path d="M0 0 C0.99 0 1.98 0 3 0 C2.7734375 1.83984375 2.7734375 1.83984375 2 4 C0.0390625 5.37890625 0.0390625 5.37890625 -2.375 6.5625 C-5.75681044 8.23361872 -5.75681044 8.23361872 -8.6015625 10.65234375 C-10 12 -10 12 -13 12 C-13.33 12.99 -13.66 13.98 -14 15 C-15.78515625 16.39453125 -15.78515625 16.39453125 -18.0625 17.8125 C-21.94522358 20.28557234 -25.58007149 22.92873635 -29.17578125 25.80078125 C-31.11856823 27.07794528 -32.72851501 27.57378317 -35 28 C-35 27.34 -35 26.68 -35 26 C-33.1015625 24.2734375 -33.1015625 24.2734375 -30.625 22.375 C-29.81289063 21.74335938 -29.00078125 21.11171875 -28.1640625 20.4609375 C-26 19 -26 19 -24 19 C-24 18.34 -24 17.68 -24 17 C-22.68463632 16.06539949 -21.3579297 15.14446294 -19.9921875 14.28515625 C-16.62980736 12.11609141 -13.4166298 9.73078149 -10.171875 7.390625 C-8 6 -8 6 -6 6 C-6 5.34 -6 4.68 -6 4 C-4.02 3.34 -2.04 2.68 0 2 C0 1.34 0 0.68 0 0 Z " fill="#6F6F6F" transform="translate(339,216)"/>
<path d="M0 0 C1.98 0.99 3.96 1.98 6 3 C6 3.66 6 4.32 6 5 C7.32 5.33 8.64 5.66 10 6 C10 6.66 10 7.32 10 8 C10.99 8.33 11.98 8.66 13 9 C13 9.66 13 10.32 13 11 C13.99 11 14.98 11 16 11 C16.99 12.485 16.99 12.485 18 14 C19.96672915 15.1500831 19.96672915 15.1500831 22 16 C22.66 16.33 23.32 16.66 24 17 C21.35261084 18.4606285 20.10551666 19 17 19 C17 18.34 17 17.68 17 17 C16.401875 16.87625 15.80375 16.7525 15.1875 16.625 C13 16 13 16 10 14 C10 13.34 10 12.68 10 12 C9.195625 11.62875 9.195625 11.62875 8.375 11.25 C0.34042553 7.0212766 0.34042553 7.0212766 -1 3 C-0.67 2.01 -0.34 1.02 0 0 Z " fill="#B1B1B1" transform="translate(223,323)"/>
<path d="M0 0 C2 2 2 2 2 5.625 C1.9896875 6.34171875 1.979375 7.0584375 1.96875 7.796875 C2.11085342 17.81516587 8.04708199 24.17072752 14.875 30.9375 C15.57625 31.618125 16.2775 32.29875 17 33 C17.66 33.99 18.32 34.98 19 36 C10.01994277 33.00664759 4.5020994 27.13938875 0 19 C-1.05917816 15.26278615 -1.13461986 11.68449186 -1.125 7.8125 C-1.12757813 6.76707031 -1.13015625 5.72164063 -1.1328125 4.64453125 C-1 2 -1 2 0 0 Z " fill="#72716F" transform="translate(188,303)"/>
<path d="M0 0 C0.99 0.66 1.98 1.32 3 2 C1.58680023 3.12935196 0.16928595 4.25330626 -1.25 5.375 C-2.03890625 6.00148437 -2.8278125 6.62796875 -3.640625 7.2734375 C-5.71181189 8.78910737 -7.67069497 9.94219634 -10 11 C-10 11.66 -10 12.32 -10 13 C-11.97946592 14.36363208 -13.9819245 15.69418644 -16 17 C-17.79394446 18.62351109 -17.79394446 18.62351109 -19 20 C-24.875 16.375 -24.875 16.375 -26 13 C-22.7 13.33 -19.4 13.66 -16 14 C-16 13.34 -16 12.68 -16 12 C-13.92967882 10.25159752 -11.85808173 8.61467291 -9.6875 7 C-8.79514648 6.32324219 -8.79514648 6.32324219 -7.88476562 5.6328125 C-5.29933973 3.68002154 -2.69637991 1.79758661 0 0 Z " fill="#989697" transform="translate(173,203)"/>
<path d="M0 0 C0.309375 0.639375 0.61875 1.27875 0.9375 1.9375 C1.8345163 3.93610821 1.8345163 3.93610821 3 5 C3.56708245 13.54985841 3.35711257 21.02685764 0 29 C-1.32 29 -2.64 29 -4 29 C-3.67 28.34 -3.34 27.68 -3 27 C-2.16507646 24.57540213 -2.16507646 24.57540213 -2 22 C-3.39588754 20.35405861 -3.39588754 20.35405861 -5 19 C-5 18.01 -5 17.02 -5 16 C-4.01 16 -3.02 16 -2 16 C-1.34 14.02 -0.68 12.04 0 10 C0.66 10 1.32 10 2 10 C1.505 8.9171875 1.505 8.9171875 1 7.8125 C-0.00603529 4.98302573 -0.16977402 2.97104534 0 0 Z M-4 17 C-3 19 -3 19 -3 19 Z " fill="#DEDCDB" transform="translate(412,238)"/>
<path d="M0 0 C1.93726484 3.26479293 2.29708488 5.78579661 2.3125 9.5625 C2.32925781 10.51253906 2.34601563 11.46257812 2.36328125 12.44140625 C1.93765004 15.43913147 1.24116221 16.07900382 -1 18 C-2.04622875 19.97620986 -3.05439935 21.9737129 -4 24 C-4.66 24 -5.32 24 -6 24 C-6 24.66 -6 25.32 -6 26 C-6.66 26 -7.32 26 -8 26 C-7.67 25.01 -7.34 24.02 -7 23 C-7.66 22.34 -8.32 21.68 -9 21 C-8.51789063 20.26394531 -8.03578125 19.52789062 -7.5390625 18.76953125 C-6.90742188 17.79371094 -6.27578125 16.81789062 -5.625 15.8125 C-4.99851562 14.84957031 -4.37203125 13.88664063 -3.7265625 12.89453125 C-1.09573305 8.48402305 0.29506966 5.16371911 0 0 Z " fill="#8A8788" transform="translate(320,174)"/>
<path d="M0 0 C2.0625 0.4375 2.0625 0.4375 4 1 C3.01 1 2.02 1 1 1 C1.33 1.66 1.66 2.32 2 3 C2.66 3 3.32 3 4 3 C3.67 4.65 3.34 6.3 3 8 C1.68 8 0.36 8 -1 8 C-1.103125 8.639375 -1.20625 9.27875 -1.3125 9.9375 C-1.539375 10.618125 -1.76625 11.29875 -2 12 C-2.99 12.33 -3.98 12.66 -5 13 C-5.804375 13.804375 -6.60875 14.60875 -7.4375 15.4375 C-9.64973661 17.64973661 -11.15760017 18.84198526 -14 20 C-13.1875 17.0625 -13.1875 17.0625 -12 14 C-11.01 13.67 -10.02 13.34 -9 13 C-8.71125 12.4225 -8.4225 11.845 -8.125 11.25 C-6.60387378 8.20774755 -4.51286104 6.26157493 -2 4 C-1.34 4 -0.68 4 0 4 C-0.33 3.01 -0.66 2.02 -1 1 C-0.67 0.67 -0.34 0.34 0 0 Z " fill="#71656E" transform="translate(341,235)"/>
<path d="M0 0 C2.125 0.375 2.125 0.375 4 1 C4 1.66 4 2.32 4 3 C3.01 3.33 2.02 3.66 1 4 C1.33 4.66 1.66 5.32 2 6 C-0.31 6 -2.62 6 -5 6 C-4.67 7.32 -4.34 8.64 -4 10 C-7.31371 12.20914 -8.3446021 12.22481553 -12.1875 12.125 C-13.08855469 12.10695313 -13.98960937 12.08890625 -14.91796875 12.0703125 C-15.60503906 12.04710937 -16.29210937 12.02390625 -17 12 C-16.34 11.34 -15.68 10.68 -15 10 C-15.99 9.34 -16.98 8.68 -18 8 C-14.12315913 6.80712589 -11.08378077 6 -7 6 C-6.67 5.34 -6.34 4.68 -6 4 C-4.67532254 3.3162955 -3.34136367 2.65035814 -2 2 C-1.34 1.34 -0.68 0.68 0 0 Z " fill="#C8C5C5" transform="translate(278,330)"/>
<path d="M0 0 C3.96 1.98 3.96 1.98 8 4 C8 4.66 8 5.32 8 6 C8.99 6 9.98 6 11 6 C14 9.33333333 14 9.33333333 14 12 C14.99 12.33 15.98 12.66 17 13 C17.33 13.66 17.66 14.32 18 15 C17.01 16.485 17.01 16.485 16 18 C15.938125 17.38125 15.87625 16.7625 15.8125 16.125 C15.544375 15.42375 15.27625 14.7225 15 14 C13.3523962 13.28752268 11.68236471 12.62599617 10 12 C8.64631404 10.68733482 7.31200404 9.35432675 6 8 C4.67479497 7.31731862 3.34187818 6.6492959 2 6 C0.25 4.375 0.25 4.375 -1 3 C-0.67 2.01 -0.34 1.02 0 0 Z " fill="#D1CFD0" transform="translate(205,308)"/>
<path d="M0 0 C-1.62339805 1.70884005 -3.29319053 3.37446717 -5 5 C-5.66 5 -6.32 5 -7 5 C-7.33 5.99 -7.66 6.98 -8 8 C-9.32 8 -10.64 8 -12 8 C-13.70680947 9.62553283 -15.37660195 11.29115995 -17 13 C-17.66 13 -18.32 13 -19 13 C-20.62514468 14.45833358 -20.62514468 14.45833358 -22 16 C-22 12 -22 12 -20.3203125 10.296875 C-19.59585938 9.78640625 -18.87140625 9.2759375 -18.125 8.75 C-17.40570313 8.22921875 -16.68640625 7.7084375 -15.9453125 7.171875 C-14 6 -14 6 -12 6 C-12 5.34 -12 4.68 -12 4 C-10.390625 2.67578125 -10.390625 2.67578125 -8.25 1.3125 C-7.55390625 0.85488281 -6.8578125 0.39726563 -6.140625 -0.07421875 C-3.60909275 -1.16906025 -2.53899138 -0.9435441 0 0 Z M-10 5 C-9.67 5.66 -9.34 6.32 -9 7 C-8.67 6.34 -8.34 5.68 -8 5 C-8.66 5 -9.32 5 -10 5 Z " fill="#6F6F6F" transform="translate(224,115)"/>
<path d="M0 0 C0.66 0.33 1.32 0.66 2 1 C1.67 1.99 1.34 2.98 1 4 C0.34 4 -0.32 4 -1 4 C-1 4.99 -1 5.98 -1 7 C-0.34 7.33 0.32 7.66 1 8 C-2 10 -2 10 -4 10 C-5.33783393 10.31478446 -6.67203709 10.64587656 -8 11 C-7.01 11.66 -6.02 12.32 -5 13 C-6.28965176 14.37562854 -7.62689293 15.70766393 -9 17 C-9.66 17 -10.32 17 -11 17 C-11.80078125 14.83203125 -11.80078125 14.83203125 -12 12 C-9.98046875 9.32421875 -9.98046875 9.32421875 -7.1875 6.6875 C-6.27355469 5.80449219 -5.35960937 4.92148438 -4.41796875 4.01171875 C-2 2 -2 2 0 2 C0 1.34 0 0.68 0 0 Z " fill="#A9A5A6" transform="translate(309,196)"/>
<path d="M0 0 C1.485 0.99 1.485 0.99 3 2 C3.15234375 4.35546875 3.15234375 4.35546875 2.9375 7.1875 C2.75433584 12.75569049 3.80035662 15.50050149 7 20 C6.34 20 5.68 20 5 20 C5.33 21.32 5.66 22.64 6 24 C1.37010727 19.52443703 -0.81911007 16.2810616 -1.09375 9.78125 C-1.14035119 6.19295851 -1.14558093 3.43674279 0 0 Z " fill="#7D7A7B" transform="translate(107,223)"/>
<path d="M0 0 C3.46940118 -0.32273499 5.4907652 -0.2856683 8.5625 1.4375 C11.79876345 4.83972568 14.29984564 8.60388659 16 13 C15 16 15 16 13 17 C12.5875 15.948125 12.175 14.89625 11.75 13.8125 C9.11332403 7.72974986 5.56740594 4.54289469 0 1 C0 0.67 0 0.34 0 0 Z " fill="#93908F" transform="translate(380,224)"/>
<path d="M0 0 C0.33 0.66 0.66 1.32 1 2 C-0.65 2.66 -2.3 3.32 -4 4 C-4 4.99 -4 5.98 -4 7 C-4.70125 7.061875 -5.4025 7.12375 -6.125 7.1875 C-10.0332733 8.29201202 -12.00357248 10.28230992 -15 13 C-16.32 12.34 -17.64 11.68 -19 11 C-14.25 7 -14.25 7 -12 7 C-12 6.34 -12 5.68 -12 5 C-8.25 3.875 -8.25 3.875 -6 5 C-6 4.34 -6 3.68 -6 3 C-6.66 2.67 -7.32 2.34 -8 2 C-4.77208445 -0.1519437 -3.71599191 -0.20086443 0 0 Z " fill="#A5A5A5" transform="translate(197,187)"/>
<path d="M0 0 C1.12588014 0.95729916 2.2506715 1.91587895 3.375 2.875 C4.00148438 3.40867188 4.62796875 3.94234375 5.2734375 4.4921875 C6.55836651 5.61432007 7.79371975 6.79371975 9 8 C9.80824219 8.10183594 10.61648438 8.20367187 11.44921875 8.30859375 C14 9 14 9 15.58203125 11.28515625 C16.19111328 12.65994141 16.19111328 12.65994141 16.8125 14.0625 C17.23144531 14.98160156 17.65039062 15.90070313 18.08203125 16.84765625 C18.38496094 17.55792969 18.68789063 18.26820313 19 19 C18.34 19 17.68 19 17 19 C17.33 19.99 17.66 20.98 18 22 C17.34 22 16.68 22 16 22 C15.76925781 21.48050781 15.53851563 20.96101563 15.30078125 20.42578125 C13.10754416 15.73589483 10.88130768 12.5202558 7 9 C5.72085641 7.77948383 4.45033901 6.54987855 3.1875 5.3125 C2.58292969 4.73113281 1.97835938 4.14976562 1.35546875 3.55078125 C0 2 0 2 0 0 Z " fill="#706E6E" transform="translate(301,140)"/>
<path d="M0 0 C1.15242188 -0.00483398 1.15242188 -0.00483398 2.328125 -0.00976562 C7.23882557 0.0361678 11.34192212 0.75774262 16 2.3125 C15.67 3.3025 15.34 4.2925 15 5.3125 C14.113125 4.9825 13.22625 4.6525 12.3125 4.3125 C5.16223791 2.25076799 -2.7989459 2.77643897 -10 4.3125 C-13 4.3125 -13 4.3125 -16 3.3125 C-10.46195936 0.52138643 -6.16025043 -0.12919988 0 0 Z " fill="#6E6E6E" transform="translate(245,122.6875)"/>
<path d="M0 0 C2.22909871 -0.02714735 4.45829367 -0.04646254 6.6875 -0.0625 C7.92886719 -0.07410156 9.17023438 -0.08570313 10.44921875 -0.09765625 C13.46235454 -0.01478673 16.08275339 0.29160551 19 1 C18.67 1.99 18.34 2.98 18 4 C17.04996094 3.83628906 16.09992188 3.67257813 15.12109375 3.50390625 C10.43466951 2.83441707 5.78731694 2.89079078 1.0625 2.9375 C0.18787109 2.94201172 -0.68675781 2.94652344 -1.58789062 2.95117188 C-3.72529047 2.96285166 -5.86265463 2.98078311 -8 3 C-8 2.67 -8 2.34 -8 2 C-5.36 2 -2.72 2 0 2 C0 1.34 0 0.68 0 0 Z " fill="#888787" transform="translate(368,207)"/>
<path d="M0 0 C4.42608146 2.25479622 8.20182235 4.77730382 12 8 C13.32 6.68 14.64 5.36 16 4 C16.99 4.33 17.98 4.66 19 5 C16.8125 7.5625 16.8125 7.5625 14 10 C8.53874105 10.14371734 3.44190136 6.33098588 -0.4375 2.75 C-0.953125 2.1725 -1.46875 1.595 -2 1 C-1.34 0.67 -0.68 0.34 0 0 Z " fill="#838282" transform="translate(273,183)"/>
<path d="M0 0 C1.32 0.66 2.64 1.32 4 2 C3.38490238 4.64850284 2.75850592 7.29339905 2.125 9.9375 C1.95097656 10.69224609 1.77695313 11.44699219 1.59765625 12.22460938 C1.12755935 14.16593545 0.5695703 16.08549544 0 18 C-0.66 18.33 -1.32 18.66 -2 19 C-2 4 -2 4 0 0 Z " fill="#8F8C8D" transform="translate(90,213)"/>
<path d="M0 0 C0.66 0.33 1.32 0.66 2 1 C-0.28712911 2.83925787 -2.57928535 4.67151494 -4.875 6.5 C-5.85146484 7.28697266 -5.85146484 7.28697266 -6.84765625 8.08984375 C-7.47285156 8.58613281 -8.09804687 9.08242187 -8.7421875 9.59375 C-9.3182373 10.05458984 -9.89428711 10.51542969 -10.48779297 10.99023438 C-12 12 -12 12 -14 12 C-14 12.66 -14 13.32 -14 14 C-14.99 14 -15.98 14 -17 14 C-17.33 14.66 -17.66 15.32 -18 16 C-18.33 15.01 -18.66 14.02 -19 13 C-16.9587948 11.58266464 -14.91705002 10.16611729 -12.875 8.75 C-12.30523437 8.35425781 -11.73546875 7.95851562 -11.1484375 7.55078125 C-7.45849183 4.992978 -3.74271758 2.479977 0 0 Z " fill="#858384" transform="translate(167,173)"/>
<path d="M0 0 C0.33 0.66 0.66 1.32 1 2 C-11.45224719 13 -11.45224719 13 -14 13 C-14 13.66 -14 14.32 -14 15 C-14.66 15 -15.32 15 -16 15 C-16 15.66 -16 16.32 -16 17 C-17.65 17.66 -19.3 18.32 -21 19 C-21.33 18.34 -21.66 17.68 -22 17 C-21.01 17 -20.02 17 -19 17 C-18.67 16.01 -18.34 15.02 -18 14 C-17.01 14 -16.02 14 -15 14 C-14.34 12.68 -13.68 11.36 -13 10 C-12.01 10 -11.02 10 -10 10 C-9.67 9.01 -9.34 8.02 -9 7 C-8.195625 6.690625 -7.39125 6.38125 -6.5625 6.0625 C-3.52314752 4.80228068 -3.22944819 3.93176107 -2 1 C-1.34 0.67 -0.68 0.34 0 0 Z " fill="#848283" transform="translate(330,293)"/>
<path d="M0 0 C0.33 0.66 0.66 1.32 1 2 C-3.75 7.875 -3.75 7.875 -6 9 C-6.6496875 10.1446875 -6.6496875 10.1446875 -7.3125 11.3125 C-9.17518219 14.27899385 -11.18861522 15.94844894 -14 18 C-14.66 17.67 -15.32 17.34 -16 17 C-14.39979779 15.20465118 -12.79509897 13.41370539 -11.1875 11.625 C-10.73568359 11.11710937 -10.28386719 10.60921875 -9.81835938 10.0859375 C-7.64829248 7.67827204 -5.71407209 5.80938139 -3 4 C-2.67 3.01 -2.34 2.02 -2 1 C-1.34 0.67 -0.68 0.34 0 0 Z " fill="#989797" transform="translate(192,273)"/>
<path d="M0 0 C0.99 0.66 1.98 1.32 3 2 C1.58680023 3.12935196 0.16928595 4.25330626 -1.25 5.375 C-2.03890625 6.00148437 -2.8278125 6.62796875 -3.640625 7.2734375 C-6 9 -6 9 -8.234375 10.1015625 C-10.18448936 10.87369417 -10.18448936 10.87369417 -11 13 C-11.33 11.68 -11.66 10.36 -12 9 C-8.04 6.03 -4.08 3.06 0 0 Z " fill="#909090" transform="translate(173,203)"/>
<path d="M0 0 C0.99 0.66 1.98 1.32 3 2 C1.46739776 3.30240902 -0.07654827 4.59147512 -1.625 5.875 C-2.48351562 6.59429687 -3.34203125 7.31359375 -4.2265625 8.0546875 C-7.10094813 10.07080587 -9.63437541 11.06236265 -13 12 C-13 11.34 -13 10.68 -13 10 C-11.1015625 8.2734375 -11.1015625 8.2734375 -8.625 6.375 C-7.40683594 5.42753906 -7.40683594 5.42753906 -6.1640625 4.4609375 C-4 3 -4 3 -2 3 C-2 2.34 -2 1.68 -2 1 C-1.34 0.67 -0.68 0.34 0 0 Z " fill="#646364" transform="translate(317,232)"/>
<path d="M0 0 C5.63926816 3.22243895 9.91867258 6.16169541 13 12 C8.48893021 10.49631007 4.4571701 8.28011826 1 5 C0.0625 2.1875 0.0625 2.1875 0 0 Z " fill="#999796" transform="translate(194,327)"/>
<path d="M0 0 C4.75416122 0.49493467 7.55220583 1.72123406 11.375 4.5625 C12.24898438 5.20316406 13.12296875 5.84382813 14.0234375 6.50390625 C14.67570312 6.99761719 15.32796875 7.49132812 16 8 C15.67 8.66 15.34 9.32 15 10 C12.69 9.01 10.38 8.02 8 7 C8 6.34 8 5.68 8 5 C7.13375 4.814375 7.13375 4.814375 6.25 4.625 C3.97664233 3.99351176 2.0746471 3.11141809 0 2 C0 1.34 0 0.68 0 0 Z " fill="#929292" transform="translate(268,117)"/>
<path d="M0 0 C0.66 0 1.32 0 2 0 C3.2890625 1.75 3.2890625 1.75 4.625 4 C5.07101563 4.7425 5.51703125 5.485 5.9765625 6.25 C6.31429687 6.8275 6.65203125 7.405 7 8 C5 9 5 9 2 9 C-0.6875 6.5 -0.6875 6.5 -3 4 C-2.67 3.34 -2.34 2.68 -2 2 C-1.34 2 -0.68 2 0 2 C0 1.34 0 0.68 0 0 Z " fill="#B4B2B1" transform="translate(183,334)"/>
<path d="M0 0 C0.99 0.33 1.98 0.66 3 1 C3.99 0.67 4.98 0.34 6 0 C6 0.66 6 1.32 6 2 C4.71349294 2.69710731 3.42059335 3.38242876 2.125 4.0625 C1.40570313 4.44535156 0.68640625 4.82820313 -0.0546875 5.22265625 C-0.69664062 5.47917969 -1.33859375 5.73570312 -2 6 C-2.66 5.67 -3.32 5.34 -4 5 C-4.33 5.99 -4.66 6.98 -5 8 C-6.32 7.67 -7.64 7.34 -9 7 C-3.375 2 -3.375 2 0 2 C0 1.34 0 0.68 0 0 Z " fill="#717070" transform="translate(272,354)"/>
<path d="M0 0 C0.99 0 1.98 0 3 0 C3.33 1.65 3.66 3.3 4 5 C3.01 5.33 2.02 5.66 1 6 C0.67 6.99 0.34 7.98 0 9 C-1.32 8.67 -2.64 8.34 -4 8 C-3.67 6.68 -3.34 5.36 -3 4 C-2.34 4 -1.68 4 -1 4 C-0.67 2.68 -0.34 1.36 0 0 Z " fill="#B4B2B3" transform="translate(96,205)"/>
<path d="M0 0 C0 3 0 3 -1.8125 5.125 C-4 7 -4 7 -7 8 C-7.99 9.485 -7.99 9.485 -9 11 C-11.625 11.6875 -11.625 11.6875 -14 12 C-14.33 12.99 -14.66 13.98 -15 15 C-15.66 14.67 -16.32 14.34 -17 14 C-15.71034824 12.62437146 -14.37310707 11.29233607 -13 10 C-12.34 10 -11.68 10 -11 10 C-10.67 9.01 -10.34 8.02 -10 7 C-7.96875 5.4296875 -7.96875 5.4296875 -5.5 3.875 C-2.5968522 2.13228203 -2.5968522 2.13228203 0 0 Z " fill="#A19E9F" transform="translate(332,272)"/>
<path d="M0 0 C0.99 0 1.98 0 3 0 C3 0.66 3 1.32 3 2 C3.86625 2.37125 3.86625 2.37125 4.75 2.75 C7.32939979 4.18299988 9.06121592 5.78424676 11 8 C11 8.66 11 9.32 11 10 C10.01 10 9.02 10 8 10 C8 9.34 8 8.68 8 8 C7.4225 7.731875 6.845 7.46375 6.25 7.1875 C3.92636635 5.9611378 1.96175354 4.75156566 0 3 C0 2.01 0 1.02 0 0 Z " fill="#7B7A7A" transform="translate(200,268)"/>
<path d="M0 0 C0.66 0.33 1.32 0.66 2 1 C0.02 1.99 0.02 1.99 -2 3 C-2 3.66 -2 4.32 -2 5 C-2.969375 5.2475 -3.93875 5.495 -4.9375 5.75 C-5.948125 6.1625 -6.95875 6.575 -8 7 C-8.96877057 9.03243548 -8.96877057 9.03243548 -9 11 C-9.66 11 -10.32 11 -11 11 C-11 11.66 -11 12.32 -11 13 C-12.65 13 -14.3 13 -16 13 C-11.3126338 7.82773385 -5.68271819 4.01074507 0 0 Z " fill="#827E80" transform="translate(131,200)"/>
<path d="M0 0 C-2.52788007 2.79872437 -4.20411134 4.45773019 -8 5 C-8 5.66 -8 6.32 -8 7 C-9.98 7.99 -11.96 8.98 -14 10 C-13.00102287 7.00306862 -12.34869747 5.97290587 -10 4 C-9.34 4 -8.68 4 -8 4 C-7.67 3.01 -7.34 2.02 -7 1 C-4.05697101 -0.96201933 -3.48011144 -1.16003715 0 0 Z " fill="#989798" transform="translate(217,139)"/>
<path d="M0 0 C0.33 0 0.66 0 1 0 C1 1.98 1 3.96 1 6 C0.01 6 -0.98 6 -2 6 C-2.66 7.32 -3.32 8.64 -4 10 C-5.32 9.67 -6.64 9.34 -8 9 C-7.67 8.67 -7.34 8.34 -7 8 C-7.33 7.34 -7.66 6.68 -8 6 C-7.236875 5.7525 -6.47375 5.505 -5.6875 5.25 C-2.75099641 3.88418437 -1.76377946 2.64566919 0 0 Z " fill="#B9B6B7" transform="translate(290,321)"/>
<path d="M0 0 C0.99 0 1.98 0 3 0 C2.67 2.31 2.34 4.62 2 7 C0.02 7.33 -1.96 7.66 -4 8 C-4 5 -4 5 -3 3 C-2.34 3 -1.68 3 -1 3 C-0.67 2.01 -0.34 1.02 0 0 Z " fill="#595958" transform="translate(209,279)"/>
<path d="M0 0 C0.99 0.33 1.98 0.66 3 1 C0.05740921 4.14480675 -3.00060534 6.49230126 -6.625 8.8125 C-7.58664063 9.43769531 -8.54828125 10.06289062 -9.5390625 10.70703125 C-10.35117188 11.13371094 -11.16328125 11.56039062 -12 12 C-12.66 11.67 -13.32 11.34 -14 11 C-12.41728767 9.72839334 -10.83380365 8.45774715 -9.25 7.1875 C-8.36828125 6.47980469 -7.4865625 5.77210938 -6.578125 5.04296875 C-5.72734375 4.36878906 -4.8765625 3.69460937 -4 3 C-3.29359375 2.39800781 -2.5871875 1.79601562 -1.859375 1.17578125 C-1.24578125 0.78777344 -0.6321875 0.39976562 0 0 Z " fill="#5F595B" transform="translate(220,169)"/>
<path d="M0 0 C4.88151235 0.61018904 8.7134195 2.743905 13 5 C14.155 5.5775 15.31 6.155 16.5 6.75 C17.325 7.1625 18.15 7.575 19 8 C19 8.66 19 9.32 19 10 C14.37324343 8.6077541 10.35313769 6.70479016 6.125 4.375 C4.97257812 3.74335938 3.82015625 3.11171875 2.6328125 2.4609375 C1.32957031 1.73777344 1.32957031 1.73777344 0 1 C0 0.67 0 0.34 0 0 Z " fill="#454545" transform="translate(255,130)"/>
<path d="M0 0 C-0.433125 0.8353125 -0.433125 0.8353125 -0.875 1.6875 C-2.06645793 3.99433186 -2.06645793 3.99433186 -2.8125 6.5625 C-4.324082 9.66522094 -5.88937255 10.60021765 -9 12 C-9.66 11.67 -10.32 11.34 -11 11 C-10.01 10.1028125 -10.01 10.1028125 -9 9.1875 C-6.6626154 7.12498166 -6.6626154 7.12498166 -7 4 C-2.65714286 0 -2.65714286 0 0 0 Z " fill="#A4A4A4" transform="translate(301,335)"/>
<path d="M0 0 C1.98 0.99 3.96 1.98 6 3 C6 3.66 6 4.32 6 5 C6.66 5.33 7.32 5.66 8 6 C7.34 6.66 6.68 7.32 6 8 C3 8 3 8 0.75 6.25 C-1 4 -1 4 -0.75 1.75 C-0.5025 1.1725 -0.255 0.595 0 0 Z " fill="#9B9A9A" transform="translate(223,323)"/>
<path d="M0 0 C0.99 0.33 1.98 0.66 3 1 C3 1.66 3 2.32 3 3 C1.68 3.33 0.36 3.66 -1 4 C-1 4.66 -1 5.32 -1 6 C-1.66 6 -2.32 6 -3 6 C-3 6.66 -3 7.32 -3 8 C-5.5614657 10.29648649 -6.47967572 11 -10 11 C-10 10.34 -10 9.68 -10 9 C-9.01 9 -8.02 9 -7 9 C-7 8.34 -7 7.68 -7 7 C-6.01 6.34 -5.02 5.68 -4 5 C-4.33 4.34 -4.66 3.68 -5 3 C-4.360625 2.690625 -3.72125 2.38125 -3.0625 2.0625 C-1.06389179 1.1654837 -1.06389179 1.1654837 0 0 Z " fill="#525252" transform="translate(324,254)"/>
<path d="M0 0 C0 0.66 0 1.32 0 2 C-0.99 2 -1.98 2 -3 2 C-3 2.66 -3 3.32 -3 4 C-4.3125 5.625 -4.3125 5.625 -6 7 C-6.99 7 -7.98 7 -9 7 C-9.33 7.99 -9.66 8.98 -10 10 C-10.99 9.67 -11.98 9.34 -13 9 C-12.505 8.38125 -12.01 7.7625 -11.5 7.125 C-9.80777227 5.16119096 -9.80777227 5.16119096 -10 3 C-9.236875 2.87625 -8.47375 2.7525 -7.6875 2.625 C-4.74036043 1.9396187 -2.98146361 0 0 0 Z " fill="#767374" transform="translate(332,247)"/>
<path d="M0 0 C0.33 0.66 0.66 1.32 1 2 C1.99 1.67 2.98 1.34 4 1 C4 1.99 4 2.98 4 4 C3.34 4 2.68 4 2 4 C2 4.66 2 5.32 2 6 C1.34 6 0.68 6 0 6 C-0.33 6.66 -0.66 7.32 -1 8 C-1.99 7.67 -2.98 7.34 -4 7 C-3.6875 4.625 -3.6875 4.625 -3 2 C-2.01 1.34 -1.02 0.68 0 0 Z " fill="#A9A8A9" transform="translate(201,180)"/>
<path d="M0 0 C1.125 1.625 1.125 1.625 2 4 C1.0956642 7.9461926 -0.24284761 11.01308491 -3 14 C-3.66 14 -4.32 14 -5 14 C-4.42923685 10.00465792 -3.09958585 7.411827 -1 4 C-0.30420546 1.80869466 -0.30420546 1.80869466 0 0 Z " fill="#8A8687" transform="translate(393,251)"/>
<path d="M0 0 C0.66 0 1.32 0 2 0 C3.21513944 6.3187251 3.21513944 6.3187251 2.25 9.375 C1 11 1 11 -2 12 C-1.649375 11.2575 -1.29875 10.515 -0.9375 9.75 C0.07781286 6.77174894 -0.13091741 5.89694197 -1 3 C-0.67 2.01 -0.34 1.02 0 0 Z " fill="#5B5758" transform="translate(190,229)"/>
<path d="M0 0 C0.69738281 0.00902344 1.39476562 0.01804688 2.11328125 0.02734375 C3.82566958 0.05080112 5.53788004 0.08666896 7.25 0.125 C7.58 0.785 7.91 1.445 8.25 2.125 C7.08984375 2.07279297 7.08984375 2.07279297 5.90625 2.01953125 C-0.78712905 1.84556967 -5.66030021 2.31436933 -11.75 5.125 C-11.75 4.135 -11.75 3.145 -11.75 2.125 C-8.00764681 -0.32489101 -4.30774581 -0.10586143 0 0 Z " fill="#7B7B7B" transform="translate(235.75,164.875)"/>
<path d="M0 0 C0.4125 0.45375 0.825 0.9075 1.25 1.375 C3.07773397 3.07218154 4.7384813 3.97866897 7 5 C7.66 5.33 8.32 5.66 9 6 C6.35261084 7.4606285 5.10551666 8 2 8 C2 7.34 2 6.68 2 6 C0.68 5.67 -0.64 5.34 -2 5 C-2 2 -2 2 0 0 Z " fill="#5E5E5C" transform="translate(238,334)"/>
<path d="M0 0 C0.66 0 1.32 0 2 0 C0.51670379 4.69710468 0.51670379 4.69710468 -1.8125 6.0625 C-2.534375 6.371875 -3.25625 6.68125 -4 7 C-4.86625 7.70125 -5.7325 8.4025 -6.625 9.125 C-9 11 -9 11 -11 11 C-11 10.34 -11 9.68 -11 9 C-9.1015625 7.34375 -9.1015625 7.34375 -6.625 5.5 C-4.27095638 3.73633557 -2.0808095 2.0808095 0 0 Z " fill="#AEADAE" transform="translate(335,306)"/>
<path d="M0 0 C1.125 1.5625 1.125 1.5625 2 4 C1.125 7.75 1.125 7.75 0 11 C-1.32 11 -2.64 11 -4 11 C-3.67 10.34 -3.34 9.68 -3 9 C-2.855625 8.401875 -2.71125 7.80375 -2.5625 7.1875 C-1.91970235 4.68773138 -0.99175716 2.38021718 0 0 Z " fill="#868684" transform="translate(412,256)"/>
<path d="M0 0 C2.23551759 3.35327639 2.17283528 3.90743657 1.625 7.6875 C1.51414062 8.49574219 1.40328125 9.30398437 1.2890625 10.13671875 C1.19367188 10.75160156 1.09828125 11.36648437 1 12 C-1 9 -1 9 -1 7 C-1.99 6.67 -2.98 6.34 -4 6 C-4 5.34 -4 4.68 -4 4 C-3.34 4 -2.68 4 -2 4 C-1.34 2.68 -0.68 1.36 0 0 Z " fill="#9A9898" transform="translate(304,168)"/>
<path d="M0 0 C-1.77444972 2.24606427 -2.58352485 2.95081002 -5.48046875 3.29296875 C-6.82044922 3.24076172 -6.82044922 3.24076172 -8.1875 3.1875 C-9.53908203 3.14689453 -9.53908203 3.14689453 -10.91796875 3.10546875 C-11.60503906 3.07066406 -12.29210937 3.03585937 -13 3 C-8.33735279 -0.60603901 -5.81921218 -1.45480305 0 0 Z " fill="#848282" transform="translate(274,339)"/>
<path d="M0 0 C0.309375 0.639375 0.61875 1.27875 0.9375 1.9375 C1.8345163 3.93610821 1.8345163 3.93610821 3 5 C3.07313567 7.53049402 3.09247527 10.03304837 3.0625 12.5625 C3.05798828 13.27341797 3.05347656 13.98433594 3.04882812 14.71679688 C3.03700864 16.47790013 3.01907263 18.23896036 3 20 C2.67 20 2.34 20 2 20 C2 17.69 2 15.38 2 13 C1.01 13.33 0.02 13.66 -1 14 C-0.67 12.68 -0.34 11.36 0 10 C0.66 10 1.32 10 2 10 C1.505 8.9171875 1.505 8.9171875 1 7.8125 C-0.00603529 4.98302573 -0.16977402 2.97104534 0 0 Z " fill="#8B8A88" transform="translate(412,238)"/>
<path d="M0 0 C1.175625 0.5259375 1.175625 0.5259375 2.375 1.0625 C3.674375 1.5265625 3.674375 1.5265625 5 2 C5.66 1.67 6.32 1.34 7 1 C9.625 2.4375 9.625 2.4375 12 4 C11 6 11 6 9 8 C7.49712782 6.85793642 5.99776716 5.71125043 4.5 4.5625 C3.6646875 3.92441406 2.829375 3.28632812 1.96875 2.62890625 C1.3190625 2.09136719 0.669375 1.55382812 0 1 C0 0.67 0 0.34 0 0 Z " fill="#575757" transform="translate(278,124)"/>
<path d="M0 0 C3.96 1.32 7.92 2.64 12 4 C8.54785147 6.30143236 7.76520676 6.13833854 3.8125 5.625 C2.46091797 5.45871094 2.46091797 5.45871094 1.08203125 5.2890625 C0.05142578 5.14597656 0.05142578 5.14597656 -1 5 C-0.01 4.34 0.98 3.68 2 3 C1.34 2.67 0.68 2.34 0 2 C0 1.34 0 0.68 0 0 Z " fill="#727272" transform="translate(112,262)"/>
<path d="M0 0 C0 0.66 0 1.32 0 2 C-4.873261 3.5912689 -8.80790596 4.21192221 -14 4 C-14 3.34 -14 2.68 -14 2 C-12.22978678 1.663389 -10.45880326 1.33082707 -8.6875 1 C-7.70136719 0.814375 -6.71523438 0.62875 -5.69921875 0.4375 C-3 0 -3 0 0 0 Z " fill="#5C5C5C" transform="translate(265,381)"/>
<path d="M0 0 C4.29 0 8.58 0 13 0 C12.67 0.66 12.34 1.32 12 2 C8.52674819 3.1577506 5.63932552 3.06866652 2 3 C2 2.34 2 1.68 2 1 C1.34 0.67 0.68 0.34 0 0 Z " fill="#6F6C6E" transform="translate(122,249)"/>
<path d="M0 0 C0.66 0.33 1.32 0.66 2 1 C2 2.32 2 3.64 2 5 C0.02 5.66 -1.96 6.32 -4 7 C-4 7.66 -4 8.32 -4 9 C-4.99 8.67 -5.98 8.34 -7 8 C-4.69 5.36 -2.38 2.72 0 0 Z " fill="#8E8C8D" transform="translate(140,191)"/>
<path d="M0 0 C0.33 0.99 0.66 1.98 1 3 C-3.455 5.97 -3.455 5.97 -8 9 C-8 8.01 -8 7.02 -8 6 C-7.01 5.67 -6.02 5.34 -5 5 C-5 4.34 -5 3.68 -5 3 C-2.5 1.375 -2.5 1.375 0 0 Z " fill="#827E7D" transform="translate(345,281)"/>
<path d="M0 0 C0.66 0.66 1.32 1.32 2 2 C0.54634731 3.17249353 -0.91307419 4.33783816 -2.375 5.5 C-3.18710937 6.1496875 -3.99921875 6.799375 -4.8359375 7.46875 C-7 9 -7 9 -9 9 C-8.63594751 6.29561004 -8.31857318 5.25593617 -6.15234375 3.515625 C-5.42144531 3.09796875 -4.69054687 2.6803125 -3.9375 2.25 C-3.20402344 1.82203125 -2.47054688 1.3940625 -1.71484375 0.953125 C-1.14894531 0.63859375 -0.58304687 0.3240625 0 0 Z " fill="#827F7F" transform="translate(358,271)"/>
<path d="M0 0 C2.0625 0.4375 2.0625 0.4375 4 1 C3.01 1 2.02 1 1 1 C1.33 1.66 1.66 2.32 2 3 C2.66 3 3.32 3 4 3 C3.67 4.65 3.34 6.3 3 8 C1.68 7.67 0.36 7.34 -1 7 C-0.67 6.34 -0.34 5.68 0 5 C-0.66 4.67 -1.32 4.34 -2 4 C-1.34 4 -0.68 4 0 4 C-0.33 3.01 -0.66 2.02 -1 1 C-0.67 0.67 -0.34 0.34 0 0 Z " fill="#4A4848" transform="translate(341,235)"/>
<path d="M0 0 C4.28806873 0.47645208 6.26647487 1.65902484 9 5 C9 5.66 9 6.32 9 7 C9.66 7 10.32 7 11 7 C10.67 7.66 10.34 8.32 10 9 C9.01 8.67 8.02 8.34 7 8 C6.87625 7.360625 6.7525 6.72125 6.625 6.0625 C6.41875 5.381875 6.2125 4.70125 6 4 C3.52869082 2.84478498 3.52869082 2.84478498 1 2 C0.67 1.34 0.34 0.68 0 0 Z " fill="#7A7879" transform="translate(182,218)"/>
<path d="M0 0 C-0.33 0.99 -0.66 1.98 -1 3 C-2.051875 2.835 -3.10375 2.67 -4.1875 2.5 C-7.20468796 2.10430322 -9.97093972 1.90821029 -13 2 C-12 0 -12 0 -10.4375 -0.6875 C-6.83532854 -1.14931685 -3.58833068 -0.5382496 0 0 Z " fill="#5B5759" transform="translate(387,208)"/>
<path d="M0 0 C2.125 0.375 2.125 0.375 4 1 C4 1.66 4 2.32 4 3 C3.01 3.33 2.02 3.66 1 4 C1.33 4.66 1.66 5.32 2 6 C0.02 6 -1.96 6 -4 6 C-4.33 5.34 -4.66 4.68 -5 4 C-4.01 3.34 -3.02 2.68 -2 2 C-1.34 1.34 -0.68 0.68 0 0 Z " fill="#9F9C9D" transform="translate(278,330)"/>
<path d="M0 0 C0.33 0.99 0.66 1.98 1 3 C1.66 3.33 2.32 3.66 3 4 C3 4.99 3 5.98 3 7 C1.68 7.33 0.36 7.66 -1 8 C-1.99 6.35 -2.98 4.7 -4 3 C-3.01 2.67 -2.02 2.34 -1 2 C-0.67 1.34 -0.34 0.68 0 0 Z " fill="#434141" transform="translate(162,254)"/>
<path d="M0 0 C0.66 0 1.32 0 2 0 C2.33 1.32 2.66 2.64 3 4 C3.66 4 4.32 4 5 4 C5 4.66 5 5.32 5 6 C5.66 6 6.32 6 7 6 C7 6.99 7 7.98 7 9 C6.01 9 5.02 9 4 9 C0 3.85714286 0 3.85714286 0 0 Z " fill="#636162" transform="translate(303,251)"/>
<path d="M0 0 C0.66 0.33 1.32 0.66 2 1 C-0.625 6.75 -0.625 6.75 -4 9 C-4.99 9.33 -5.98 9.66 -7 10 C-6.4409112 6.75728494 -5.5867822 5.06942576 -3 3 C-2.34 3 -1.68 3 -1 3 C-0.67 2.01 -0.34 1.02 0 0 Z " fill="#8F8F8F" transform="translate(287,196)"/>
<path d="M0 0 C4.6875 3.61328125 4.6875 3.61328125 6 5 C6 5.99 6 6.98 6 8 C3.11562221 6.70700306 1.12780579 5.34058637 -1 3 C-0.67 2.01 -0.34 1.02 0 0 Z " fill="#757475" transform="translate(205,308)"/>
<path d="M0 0 C0.66 0 1.32 0 2 0 C3.38232443 1.62626404 4.71937515 3.2925002 6 5 C5.01 5.33 4.02 5.66 3 6 C3 6.66 3 7.32 3 8 C2.34 8 1.68 8 1 8 C1 6.68 1 5.36 1 4 C0.01 3.34 -0.98 2.68 -2 2 C-1.34 1.34 -0.68 0.68 0 0 Z " fill="#5B5959" transform="translate(154,259)"/>
<path d="M0 0 C0.66 0 1.32 0 2 0 C2 0.66 2 1.32 2 2 C2.53625 2.268125 3.0725 2.53625 3.625 2.8125 C7.8125 4.90625 7.8125 4.90625 12 7 C11.67 7.66 11.34 8.32 11 9 C9.34623282 8.26766027 7.70212696 7.51347286 6.0625 6.75 C5.14597656 6.33234375 4.22945313 5.9146875 3.28515625 5.484375 C1 4 1 4 0.18359375 1.828125 C0.12300781 1.22484375 0.06242187 0.6215625 0 0 Z " fill="#8D8A8A" transform="translate(268,162)"/>
<path d="M0 0 C1.31722179 0.42307123 2.62872664 0.86397486 3.9375 1.3125 C4.66839844 1.55613281 5.39929688 1.79976563 6.15234375 2.05078125 C8 3 8 3 9 6 C8.01 7.485 8.01 7.485 7 9 C6.938125 8.38125 6.87625 7.7625 6.8125 7.125 C6.544375 6.42375 6.27625 5.7225 6 5 C4.34795544 4.29788106 2.68076231 3.63028587 1 3 C0.67 2.01 0.34 1.02 0 0 Z " fill="#848283" transform="translate(214,317)"/>
<path d="M0 0 C0.99 0.33 1.98 0.66 3 1 C2.01 1.33 1.02 1.66 0 2 C0.33 3.32 0.66 4.64 1 6 C-0.65 6.66 -2.3 7.32 -4 8 C-4 7.01 -4 6.02 -4 5 C-3.34 5 -2.68 5 -2 5 C-2.33 4.01 -2.66 3.02 -3 2 C-2.01 1.34 -1.02 0.68 0 0 Z " fill="#615F5F" transform="translate(147,263)"/>
<path d="M0 0 C-2.80804268 2.96404505 -5.18315774 5.44499019 -9 7 C-7.53913043 1.4 -7.53913043 1.4 -5.0625 -0.4375 C-3 -1 -3 -1 0 0 Z " fill="#3D3A3C" transform="translate(336,248)"/>
<path d="M0 0 C0.78375 0.165 1.5675 0.33 2.375 0.5 C5.09522679 1.23945377 5.09522679 1.23945377 8 0 C7 3 7 3 4.9375 4.1875 C4.298125 4.455625 3.65875 4.72375 3 5 C1.68 3.68 0.36 2.36 -1 1 C-0.67 0.67 -0.34 0.34 0 0 Z " fill="#4E4D4D" transform="translate(178,242)"/>
<path d="M0 0 C1.32 1.65 2.64 3.3 4 5 C3.01 5.495 3.01 5.495 2 6 C2.33 7.32 2.66 8.64 3 10 C-1.75286041 5.70709382 -1.75286041 5.70709382 -2 2 C-1.34 1.34 -0.68 0.68 0 0 Z " fill="#5B5A5B" transform="translate(110,237)"/>
<path d="M0 0 C0.66 0.33 1.32 0.66 2 1 C2 1.66 2 2.32 2 3 C-0.25 5.1875 -0.25 5.1875 -3 7 C-5.3125 6.75 -5.3125 6.75 -7 6 C-4.83312509 3.72478134 -2.54379491 1.84205838 0 0 Z " fill="#878485" transform="translate(342,231)"/>
<path d="M0 0 C0.66 0 1.32 0 2 0 C1.49396008 2.16874252 1.00016187 3.99967627 0 6 C-0.66 6 -1.32 6 -2 6 C-2 6.66 -2 7.32 -2 8 C-2.66 8 -3.32 8 -4 8 C-2.25 2.25 -2.25 2.25 0 0 Z " fill="#4C4B4C" transform="translate(316,192)"/>
<path d="M0 0 C3.77545388 1.09068668 6.47043472 1.9083091 9 5 C7 6 7 6 4.5 5.3125 C1.70348499 3.84432962 1.06588569 2.90696099 0 0 Z " fill="#959595" transform="translate(287,129)"/>
<path d="M0 0 C2.97 0 5.94 0 9 0 C9 0.66 9 1.32 9 2 C6.1875 3.125 6.1875 3.125 3 4 C2.01 3.34 1.02 2.68 0 2 C0 1.34 0 0.68 0 0 Z " fill="#858283" transform="translate(309,252)"/>
<path d="M0 0 C0.33 0 0.66 0 1 0 C1.33 4.62 1.66 9.24 2 14 C1.01 14 0.02 14 -1 14 C-0.67 9.38 -0.34 4.76 0 0 Z " fill="#9C9A9B" transform="translate(108,226)"/>
<path d="M0 0 C0.99 0.33 1.98 0.66 3 1 C1.625 3 1.625 3 0 5 C-0.66 5 -1.32 5 -2 5 C-2.33 5.66 -2.66 6.32 -3 7 C-3.33 5.68 -3.66 4.36 -4 3 C-2.1875 1.4375 -2.1875 1.4375 0 0 Z " fill="#848484" transform="translate(165,209)"/>
<path d="M0 0 C-0.33 0.99 -0.66 1.98 -1 3 C-1.66 3 -2.32 3 -3 3 C-3 3.66 -3 4.32 -3 5 C-3.99 5 -4.98 5 -6 5 C-6.33 5.66 -6.66 6.32 -7 7 C-7.33 6.01 -7.66 5.02 -8 4 C-2.25 0 -2.25 0 0 0 Z " fill="#9D9D9D" transform="translate(156,182)"/>
<path d="M0 0 C0.99 0.99 1.98 1.98 3 3 C2.1028125 3.1546875 2.1028125 3.1546875 1.1875 3.3125 C-1.28243264 4.08876455 -2.32251235 5.07088921 -4 7 C-4 5.68 -4 4.36 -4 3 C-2 1.25 -2 1.25 0 0 Z " fill="#585858" transform="translate(206,124)"/>
<path d="M0 0 C0.99 0.33 1.98 0.66 3 1 C2.67 1.66 2.34 2.32 2 3 C1.34 3 0.68 3 0 3 C0 3.66 0 4.32 0 5 C-1.98 5.99 -1.98 5.99 -4 7 C-4 5.68 -4 4.36 -4 3 C-3.01 3 -2.02 3 -1 3 C-0.67 2.01 -0.34 1.02 0 0 Z " fill="#555555" transform="translate(380,269)"/>
<path d="M0 0 C2.31 0.66 4.62 1.32 7 2 C7 2.66 7 3.32 7 4 C8.9600281 5.63676257 8.9600281 5.63676257 11 7 C8.625 6.75 8.625 6.75 6 6 C5.30062468 4.68352881 4.63270867 3.34977849 4 2 C1.94999129 1.19471111 1.94999129 1.19471111 0 1 C0 0.67 0 0.34 0 0 Z " fill="#777777" transform="translate(100,259)"/>
<path d="M0 0 C0.66 0.33 1.32 0.66 2 1 C1.40072174 4.35595828 0.15377564 6.37801226 -2 9 C-2.6875 7.3125 -2.6875 7.3125 -3 5 C-1.5625 2.25 -1.5625 2.25 0 0 Z " fill="#535152" transform="translate(112,215)"/>
<path d="M0 0 C0 3 0 3 -1.6875 5.1875 C-4.3961577 7.31050198 -5.64708882 7.37254569 -9 7 C-7.79492039 4.58984078 -6.83672718 4.19684272 -4.5 2.9375 C-2.0882696 1.6858579 -2.0882696 1.6858579 0 0 Z " fill="#B6B4B4" transform="translate(152,164)"/>
<path d="M0 0 C0.598125 0.20625 1.19625 0.4125 1.8125 0.625 C-2.8125 4.625 -2.8125 4.625 -6.1875 4.625 C-5.03076352 1.15479057 -3.91311293 -0.67081936 0 0 Z " fill="#5B5B5B" transform="translate(200.1875,130.375)"/>
<path d="M0 0 C3.375 -0.1875 3.375 -0.1875 7 0 C7.66 0.99 8.32 1.98 9 3 C8.34 3 7.68 3 7 3 C6.67 3.66 6.34 4.32 6 5 C6 4.34 6 3.68 6 3 C5.195625 2.87625 4.39125 2.7525 3.5625 2.625 C2.716875 2.41875 1.87125 2.2125 1 2 C0.67 1.34 0.34 0.68 0 0 Z " fill="#A2A0A1" transform="translate(206,359)"/>
<path d="M0 0 C0.33 0.66 0.66 1.32 1 2 C0.67 2.99 0.34 3.98 0 5 C-3.5625 6.1875 -3.5625 6.1875 -7 7 C-5.66667905 3.00003714 -3.5042173 2.16217663 0 0 Z " fill="#A9A8A8" transform="translate(280,349)"/>
<path d="M0 0 C1.32 0.66 2.64 1.32 4 2 C0.37 2 -3.26 2 -7 2 C-5.26578631 -1.46842738 -3.40984787 -1.13661596 0 0 Z " fill="#A09B9D" transform="translate(135,266)"/>
<path d="M0 0 C0.33 1.32 0.66 2.64 1 4 C0.34 4 -0.32 4 -1 4 C-1.33 4.99 -1.66 5.98 -2 7 C-2.66 7 -3.32 7 -4 7 C-3.67 5.35 -3.34 3.7 -3 2 C-2.01 2 -1.02 2 0 2 C0 1.34 0 0.68 0 0 Z " fill="#494849" transform="translate(173,249)"/>
<path d="M0 0 C2.25 0.25 2.25 0.25 4 1 C1.6875 3.0625 1.6875 3.0625 -1 5 C-1.99 4.67 -2.98 4.34 -4 4 C-2.25 1.9375 -2.25 1.9375 0 0 Z " fill="#7B7B7B" transform="translate(331,222)"/>
<path d="M0 0 C0 0.66 0 1.32 0 2 C0.66 2.33 1.32 2.66 2 3 C0.02 4.32 -1.96 5.64 -4 7 C-4.6875 5.1875 -4.6875 5.1875 -5 3 C-3.38441968 0.84589291 -2.74502455 0 0 0 Z " fill="#8B8A8B" transform="translate(222,132)"/>
<path d="M0 0 C0.66 0 1.32 0 2 0 C2.33 0.99 2.66 1.98 3 3 C2.01 3.99 1.02 4.98 0 6 C-0.66 5.67 -1.32 5.34 -2 5 C-1.125 1.125 -1.125 1.125 0 0 Z " fill="#8C8B8C" transform="translate(225,128)"/>
<path d="M0 0 C2.97 0.33 5.94 0.66 9 1 C9 1.99 9 2.98 9 4 C5.85262818 3.30058404 2.97411124 2.23921302 0 1 C0 0.67 0 0.34 0 0 Z " fill="#565656" transform="translate(254,111)"/>
<path d="M0 0 C-2.8125 2.0625 -2.8125 2.0625 -6 4 C-6.99 3.67 -7.98 3.34 -9 3 C-8.34 3 -7.68 3 -7 3 C-7 2.34 -7 1.68 -7 1 C-3.375 -1.125 -3.375 -1.125 0 0 Z " fill="#858484" transform="translate(291,366)"/>
<path d="M0 0 C0.66 0.66 1.32 1.32 2 2 C-0.31 3.65 -2.62 5.3 -5 7 C-5.33 6.01 -5.66 5.02 -6 4 C-4.02 3.34 -2.04 2.68 0 2 C0 1.34 0 0.68 0 0 Z " fill="#787676" transform="translate(297,319)"/>
<path d="M0 0 C0.66 0.66 1.32 1.32 2 2 C1.9765625 4.8203125 1.9765625 4.8203125 1.625 8.125 C1.51414063 9.22070312 1.40328125 10.31640625 1.2890625 11.4453125 C1.19367188 12.28835938 1.09828125 13.13140625 1 14 C0.67 14 0.34 14 0 14 C-0.19456705 12.04235617 -0.38044247 10.08384679 -0.5625 8.125 C-0.66691406 7.03445313 -0.77132812 5.94390625 -0.87890625 4.8203125 C-1 2 -1 2 0 0 Z " fill="#939393" transform="translate(188,303)"/>
<path d="M0 0 C0.66 0 1.32 0 2 0 C2 0.66 2 1.32 2 2 C2.66 2.33 3.32 2.66 4 3 C2.02 3.99 2.02 3.99 0 5 C0 5.66 0 6.32 0 7 C-0.66 6.67 -1.32 6.34 -2 6 C-1.34 4.02 -0.68 2.04 0 0 Z " fill="#A3A3A3" transform="translate(368,298)"/>
<path d="M0 0 C2.4375 0.8125 2.4375 0.8125 5 2 C5.33 2.99 5.66 3.98 6 5 C3.61435923 4.42415568 1.33317216 3.77772405 -1 3 C-0.67 2.01 -0.34 1.02 0 0 Z " fill="#757375" transform="translate(116,246)"/>
<path d="M0 0 C0.66 0 1.32 0 2 0 C1.4409112 3.24271506 0.5867822 4.93057424 -2 7 C-2.66 7 -3.32 7 -4 7 C-4 5.68 -4 4.36 -4 3 C-2.68 2.34 -1.36 1.68 0 1 C0 0.67 0 0.34 0 0 Z M-3 4 C-2 6 -2 6 -2 6 Z " fill="#2D2A2A" transform="translate(334,240)"/>
<path d="M0 0 C1.32 0.66 2.64 1.32 4 2 C2.71034824 3.37562854 1.37310707 4.70766393 0 6 C-0.66 6 -1.32 6 -2 6 C-1.125 1.125 -1.125 1.125 0 0 Z " fill="#4E4D4E" transform="translate(300,207)"/>
<path d="M0 0 C0.33 0.66 0.66 1.32 1 2 C1.66 2.33 2.32 2.66 3 3 C0 5 0 5 -2 5 C-3.33783393 5.31478446 -4.67203709 5.64587656 -6 6 C-4.71034824 4.62437146 -3.37310707 3.29233607 -2 2 C-1.34 2 -0.68 2 0 2 C0 1.34 0 0.68 0 0 Z " fill="#333132" transform="translate(307,201)"/>
<path d="M0 0 C0.33 0.66 0.66 1.32 1 2 C-1.31 2.66 -3.62 3.32 -6 4 C-6.66 3.34 -7.32 2.68 -8 2 C-4.77208445 -0.1519437 -3.71599191 -0.20086443 0 0 Z " fill="#ACAAAA" transform="translate(197,187)"/>
<path d="M0 0 C2.625 1.3125 2.625 1.3125 5 3 C5 3.66 5 4.32 5 5 C1.73045798 4.43628586 0.17424117 3.50037734 -2 1 C-1.34 0.67 -0.68 0.34 0 0 Z " fill="#ACAAAB" transform="translate(273,183)"/>
<path d="M0 0 C0.66 0.66 1.32 1.32 2 2 C1.01 2.66 0.02 3.32 -1 4 C-1 4.99 -1 5.98 -1 7 C-1.99 6.67 -2.98 6.34 -4 6 C-4 4.68 -4 3.36 -4 2 C-2.68 1.34 -1.36 0.68 0 0 Z " fill="#D3D3D3" transform="translate(219,132)"/>
<path d="M0 0 C5.75 0.875 5.75 0.875 8 2 C8 2.66 8 3.32 8 4 C5.23723823 3.47731534 2.6739124 2.89130413 0 2 C0 1.34 0 0.68 0 0 Z " fill="#7F7F7F" transform="translate(263,129)"/>
<path d="M0 0 C-6.75 4 -6.75 4 -9 4 C-9 3.01 -9 2.02 -9 1 C-2.25 -1.125 -2.25 -1.125 0 0 Z " fill="#C7C7C7" transform="translate(236,126)"/>
<path d="M0 0 C2.97 0.33 5.94 0.66 9 1 C8.67 1.99 8.34 2.98 8 4 C5.36 3.01 2.72 2.02 0 1 C0 0.67 0 0.34 0 0 Z " fill="#9A9A9A" transform="translate(252,124)"/>
<path d="M0 0 C1.98 0 3.96 0 6 0 C6 0.66 6 1.32 6 2 C5.34 2 4.68 2 4 2 C3.67 2.66 3.34 3.32 3 4 C2.01 3.67 1.02 3.34 0 3 C0 2.01 0 1.02 0 0 Z " fill="#504E4F" transform="translate(257,376)"/>
<path d="M0 0 C1.32 0.33 2.64 0.66 4 1 C2.68 2.32 1.36 3.64 0 5 C-0.66 4.01 -1.32 3.02 -2 2 C-1.34 2 -0.68 2 0 2 C0 1.34 0 0.68 0 0 Z " fill="#D1D1D1" transform="translate(291,341)"/>
<path d="M0 0 C0.33 0.99 0.66 1.98 1 3 C0.34 3 -0.32 3 -1 3 C-1 3.66 -1 4.32 -1 5 C-2.65 5.66 -4.3 6.32 -6 7 C-6.33 6.34 -6.66 5.68 -7 5 C-6.01 5 -5.02 5 -4 5 C-3.67 4.01 -3.34 3.02 -3 2 C-2.01 2 -1.02 2 0 2 C0 1.34 0 0.68 0 0 Z " fill="#6E6D6D" transform="translate(315,305)"/>
<path d="M0 0 C0.99 0 1.98 0 3 0 C3 1.32 3 2.64 3 4 C1.02 4.99 1.02 4.99 -1 6 C-1.042721 4.33388095 -1.04063832 2.66617115 -1 1 C-0.67 0.67 -0.34 0.34 0 0 Z " fill="#8C8C8A" transform="translate(209,279)"/>
<path d="M0 0 C1.65 0 3.3 0 5 0 C4.67 0.99 4.34 1.98 4 3 C1.69 3 -0.62 3 -3 3 C-2.01 2.67 -1.02 2.34 0 2 C0 1.34 0 0.68 0 0 Z " fill="#CBC8C9" transform="translate(124,265)"/>
<path d="M0 0 C0 0.66 0 1.32 0 2 C-2.2727675 3.49524178 -4.5679943 4.78399715 -7 6 C-7 4.68 -7 3.36 -7 2 C-2.25 0 -2.25 0 0 0 Z " fill="#7A7677" transform="translate(333,241)"/>
<path d="M0 0 C1.98 0 3.96 0 6 0 C6.66 1.32 7.32 2.64 8 4 C4.31245243 3.50168276 2.39509338 2.89932357 0 0 Z " fill="#A5A5A3" transform="translate(380,224)"/>
<path d="M0 0 C0.99 0.33 1.98 0.66 3 1 C2.34 2.65 1.68 4.3 1 6 C0.01 6 -0.98 6 -2 6 C-1.49396008 3.83125748 -1.00016187 2.00032373 0 0 Z " fill="#464245" transform="translate(90,213)"/>
<path d="M0 0 C0 0.66 0 1.32 0 2 C-2.97 2 -5.94 2 -9 2 C-8.67 1.34 -8.34 0.68 -8 0 C-4.71585695 -0.95067299 -3.30306592 -1.10102197 0 0 Z " fill="#757575" transform="translate(231,111)"/>
<path d="M0 0 C0.99 0.33 1.98 0.66 3 1 C2 3 2 3 -1.0625 4.125 C-2.031875 4.41375 -3.00125 4.7025 -4 5 C-4 4.01 -4 3.02 -4 2 C-2.68 2 -1.36 2 0 2 C0 1.34 0 0.68 0 0 Z " fill="#424242" transform="translate(274,376)"/>
<path d="M0 0 C2.31 0.33 4.62 0.66 7 1 C6.67 1.66 6.34 2.32 6 3 C4.35 3 2.7 3 1 3 C0.67 2.01 0.34 1.02 0 0 Z " fill="#454545" transform="translate(242,382)"/>
<path d="M0 0 C2.97 0.495 2.97 0.495 6 1 C6 1.66 6 2.32 6 3 C4.02 3 2.04 3 0 3 C0 2.01 0 1.02 0 0 Z " fill="#676666" transform="translate(125,270)"/>
<path d="M0 0 C0 0.66 0 1.32 0 2 C-2.64 2.99 -5.28 3.98 -8 5 C-8 4.01 -8 3.02 -8 2 C-2.25 0 -2.25 0 0 0 Z " fill="#5D5D5D" transform="translate(351,208)"/>
<path d="M0 0 C-0.33 0.99 -0.66 1.98 -1 3 C-3.5625 4.1875 -3.5625 4.1875 -6 5 C-3.74193548 0 -3.74193548 0 0 0 Z " fill="#595959" transform="translate(168,150)"/>
<path d="M0 0 C0 0.66 0 1.32 0 2 C-1.98 2.66 -3.96 3.32 -6 4 C-5.67 3.01 -5.34 2.02 -5 1 C-3 0 -3 0 0 0 Z " fill="#5F5E5F" transform="translate(342,212)"/>
<path d="M0 0 C2.97 0.495 2.97 0.495 6 1 C6 1.99 6 2.98 6 4 C5.34 4 4.68 4 4 4 C4 3.34 4 2.68 4 2 C2.68 2 1.36 2 0 2 C0 1.34 0 0.68 0 0 Z " fill="#636161" transform="translate(388,209)"/>
<path d="M0 0 C0.33 0.99 0.66 1.98 1 3 C-0.65 3.33 -2.3 3.66 -4 4 C-4 3.34 -4 2.68 -4 2 C-2.68 1.34 -1.36 0.68 0 0 Z " fill="#4B4A4A" transform="translate(160,154)"/>
<path d="M0 0 C1.98 0.66 3.96 1.32 6 2 C2.25 3.125 2.25 3.125 0 2 C0 1.34 0 0.68 0 0 Z " fill="#585858" transform="translate(235,380)"/>
<path d="M0 0 C0 0.66 0 1.32 0 2 C-0.66 2 -1.32 2 -2 2 C-2 2.66 -2 3.32 -2 4 C-2.99 4 -3.98 4 -5 4 C-5 3.34 -5 2.68 -5 2 C-2 0 -2 0 0 0 Z " fill="#494848" transform="translate(174,146)"/>
<path d="M0 0 C0.66 0.66 1.32 1.32 2 2 C-0.475 3.485 -0.475 3.485 -3 5 C-3 4.34 -3 3.68 -3 3 C-2.34 3 -1.68 3 -1 3 C-0.67 2.01 -0.34 1.02 0 0 Z " fill="#5E5D5D" transform="translate(178,246)"/>
<path d="M0 0 C0.66 0 1.32 0 2 0 C2 0.99 2 1.98 2 3 C0.68 2.67 -0.64 2.34 -2 2 C-1.34 1.34 -0.68 0.68 0 0 Z " fill="#424242" transform="translate(133,173)"/>
<path d="M0 0 C1.65 0.33 3.3 0.66 5 1 C5 1.66 5 2.32 5 3 C2.03 2.505 2.03 2.505 -1 2 C-0.67 1.34 -0.34 0.68 0 0 Z " fill="#5A5A5A" transform="translate(247,127)"/>
<path d="M0 0 C0.99 0 1.98 0 3 0 C2.67 0.99 2.34 1.98 2 3 C1.34 3 0.68 3 0 3 C0 2.01 0 1.02 0 0 Z " fill="#434343" transform="translate(354,315)"/>
<path d="M0 0 C0.99 0.33 1.98 0.66 3 1 C1.02 1.99 1.02 1.99 -1 3 C-0.67 2.01 -0.34 1.02 0 0 Z " fill="#555555" transform="translate(358,312)"/>
<path d="M0 0 C0.66 0.33 1.32 0.66 2 1 C2 1.66 2 2.32 2 3 C0.68 2.67 -0.64 2.34 -2 2 C-1.34 1.34 -0.68 0.68 0 0 Z " fill="#615A5B" transform="translate(150,264)"/>
<path d="M0 0 C1.98 0.99 1.98 0.99 4 2 C2.68 2 1.36 2 0 2 C0 1.34 0 0.68 0 0 Z " fill="#3F3D3E" transform="translate(165,255)"/>
<path d="M0 0 C0 0.66 0 1.32 0 2 C-1.32 2.33 -2.64 2.66 -4 3 C-4 2.34 -4 1.68 -4 1 C-2 0 -2 0 0 0 Z " fill="#7A7A7A" transform="translate(356,206)"/>
<path d="M0 0 C0.99 0.33 1.98 0.66 3 1 C2.34 1 1.68 1 1 1 C1 1.66 1 2.32 1 3 C0.01 2.67 -0.98 2.34 -2 2 C-1.34 1.34 -0.68 0.68 0 0 Z " fill="#605C60" transform="translate(149,162)"/>
<path d="M0 0 C0.99 0.33 1.98 0.66 3 1 C1.02 1.99 1.02 1.99 -1 3 C-0.67 2.01 -0.34 1.02 0 0 Z " fill="#4D4B4C" transform="translate(176,143)"/>
<path d="M0 0 C0.99 0 1.98 0 3 0 C2.67 0.99 2.34 1.98 2 3 C1.34 2.67 0.68 2.34 0 2 C0 1.34 0 0.68 0 0 Z " fill="#4B4B4B" transform="translate(412,231)"/>
<path d="M0 0 C1.32 0.33 2.64 0.66 4 1 C3.34 1.66 2.68 2.32 2 3 C1.34 2.01 0.68 1.02 0 0 Z " fill="#393939" transform="translate(284,147)"/>
<path d="M0 0 C0.99 0 1.98 0 3 0 C3 0.66 3 1.32 3 2 C2.01 2 1.02 2 0 2 C0 1.34 0 0.68 0 0 Z " fill="#282828" transform="translate(229,380)"/>
<path d="M0 0 C0.99 0 1.98 0 3 0 C3 0.66 3 1.32 3 2 C2.01 2 1.02 2 0 2 C0 1.34 0 0.68 0 0 Z " fill="#787878" transform="translate(358,205)"/>
<path d="M0 0 C0.99 0.33 1.98 0.66 3 1 C2.01 1.33 1.02 1.66 0 2 C0 1.34 0 0.68 0 0 Z " fill="#555555" transform="translate(266,380)"/>
<path d="M0 0 C0.66 0 1.32 0 2 0 C1.67 0.99 1.34 1.98 1 3 C0.67 2.01 0.34 1.02 0 0 Z " fill="#494343" transform="translate(339,328)"/>
<path d="M0 0 C0.99 0.33 1.98 0.66 3 1 C2.01 1.33 1.02 1.66 0 2 C0 1.34 0 0.68 0 0 Z " fill="#1F1F1F" transform="translate(350,319)"/>
<path d="M0 0 C0.99 0.33 1.98 0.66 3 1 C2.01 1.33 1.02 1.66 0 2 C0 1.34 0 0.68 0 0 Z " fill="#5B5B5B" transform="translate(311,261)"/>
<path d="M0 0 C0.99 0.33 1.98 0.66 3 1 C2.01 1.33 1.02 1.66 0 2 C0 1.34 0 0.68 0 0 Z " fill="#5D5D5D" transform="translate(332,216)"/>
<path d="M0 0 C0.99 0.495 0.99 0.495 2 1 C1.67 1.66 1.34 2.32 1 3 C0.67 2.01 0.34 1.02 0 0 Z " fill="#383838" transform="translate(226,378)"/>
<path d="M0 0 C0.66 0 1.32 0 2 0 C2 0.66 2 1.32 2 2 C1.34 2 0.68 2 0 2 C0 1.34 0 0.68 0 0 Z " fill="#2C2C2C" transform="translate(326,340)"/>
<path d="M0 0 C0.66 0 1.32 0 2 0 C2 0.66 2 1.32 2 2 C1.34 2 0.68 2 0 2 C0 1.34 0 0.68 0 0 Z " fill="#706969" transform="translate(408,269)"/>
<path d="M0 0 C0.33 0.66 0.66 1.32 1 2 C0.01 1.67 -0.98 1.34 -2 1 C-1.34 0.67 -0.68 0.34 0 0 Z " fill="#5E5D5D" transform="translate(123,181)"/>
<path d="M0 0 C0.99 0.33 1.98 0.66 3 1 C2.01 1.33 1.02 1.66 0 2 C0 1.34 0 0.68 0 0 Z " fill="#5B5B5B" transform="translate(139,169)"/>
<path d="M0 0 C0.66 0 1.32 0 2 0 C2 0.66 2 1.32 2 2 C1.34 2 0.68 2 0 2 C0 1.34 0 0.68 0 0 Z " fill="#484848" transform="translate(154,158)"/>
<path d="M0 0 C0.66 0 1.32 0 2 0 C2 0.66 2 1.32 2 2 C1.34 2 0.68 2 0 2 C0 1.34 0 0.68 0 0 Z " fill="#191919" transform="translate(275,144)"/>
<path d="M0 0 C0.66 0 1.32 0 2 0 C2 0.66 2 1.32 2 2 C1.34 2 0.68 2 0 2 C0 1.34 0 0.68 0 0 Z " fill="#333333" transform="translate(276,141)"/>
<path d="M0 0 C0.99 0.495 0.99 0.495 2 1 C1.01 1.495 1.01 1.495 0 2 C0 1.34 0 0.68 0 0 Z " fill="#1C1C1C" transform="translate(280,144)"/>
<path d="M0 0 C2 1 2 1 2 1 Z " fill="#727272" transform="translate(254,380)"/>
<path d="M0 0 C2 1 2 1 2 1 Z " fill="#A7A7A7" transform="translate(251,378)"/>
<path d="M0 0 C2 1 2 1 2 1 Z " fill="#6D6C6C" transform="translate(151,268)"/>
<path d="" fill="#4F444F" transform="translate(0,0)"/>
<path d="" fill="#433E3E" transform="translate(0,0)"/>
<path d="M0 0 C2 1 2 1 2 1 Z " fill="#BFBFBF" transform="translate(142,167)"/>
<path d="M0 0 C2 1 2 1 2 1 Z " fill="#6B696B" transform="translate(144,166)"/>
<path d="" fill="#000000" transform="translate(0,0)"/>
<path d="" fill="#999999" transform="translate(0,0)"/>
<path d="" fill="#000000" transform="translate(0,0)"/>
<path d="" fill="#000000" transform="translate(0,0)"/>
<path d="" fill="#858585" transform="translate(0,0)"/>
<path d="" fill="#8F8A8A" transform="translate(0,0)"/>
<path d="" fill="#A49292" transform="translate(0,0)"/>
</svg>
