<?xml version="1.0" standalone="no"?>
<!DOCTYPE svg PUBLIC "-//W3C//DTD SVG 20010904//EN"
 "http://www.w3.org/TR/2001/REC-SVG-20010904/DTD/svg10.dtd">
<svg version="1.0" xmlns="http://www.w3.org/2000/svg"
 width="500.000000pt" height="500.000000pt" viewBox="0 0 500.000000 500.000000"
 preserveAspectRatio="xMidYMid meet">

<g transform="translate(0.000000,500.000000) scale(0.100000,-0.100000)"
fill="#000000" stroke="none">
<path d="M2326 3903 c-22 -3 -26 -7 -16 -13 11 -7 8 -11 -14 -19 -26 -11 -116
-68 -126 -81 -3 -4 -54 -40 -115 -80 -60 -40 -111 -77 -113 -82 -2 -4 -8 -8
-14 -8 -6 0 -60 -35 -122 -77 -61 -42 -147 -102 -191 -132 -44 -30 -84 -59
-90 -64 -5 -4 -32 -22 -60 -40 -64 -42 -114 -77 -139 -99 -11 -10 -25 -18 -32
-18 -6 0 -17 -7 -24 -15 -7 -9 -45 -37 -85 -64 -76 -50 -87 -59 -156 -125 -24
-22 -47 -41 -51 -41 -5 0 -7 -2 -6 -5 2 -3 -7 -21 -20 -41 -14 -23 -20 -44
-15 -55 5 -13 3 -15 -7 -9 -7 5 -11 4 -7 -1 3 -5 -2 -34 -10 -64 -30 -103 -28
-161 6 -233 33 -69 102 -146 158 -175 32 -17 93 -31 93 -21 0 5 -6 9 -12 9
-16 0 -82 39 -76 45 2 3 24 -5 48 -17 32 -16 68 -23 134 -26 79 -4 87 -6 71
-18 -18 -13 -16 -14 15 -8 70 12 135 38 185 73 27 19 52 38 55 41 3 4 12 9 20
13 8 3 69 46 135 95 98 72 125 98 148 140 21 38 24 52 14 52 -7 0 -19 11 -25
24 -6 13 -25 31 -42 40 -30 14 -33 14 -68 -8 -20 -13 -66 -48 -103 -77 -36
-30 -81 -66 -100 -81 -18 -15 -52 -41 -73 -58 -22 -16 -69 -45 -105 -63 -52
-25 -78 -32 -126 -32 -120 1 -189 63 -201 181 -7 66 10 129 27 104 7 -11 8 -8
3 11 -5 23 3 35 53 84 31 32 85 76 118 98 83 56 115 83 107 92 -4 5 -2 5 4 2
7 -4 23 2 36 13 14 11 28 16 32 13 3 -3 6 -1 6 5 0 6 8 13 18 17 9 3 33 20 52
37 19 17 28 27 20 22 -13 -7 -13 -6 -1 10 8 9 20 15 28 12 8 -3 12 -2 9 3 -3
5 28 31 70 57 91 59 248 174 252 186 2 4 8 6 13 2 5 -3 9 -1 9 5 0 5 8 12 19
16 10 3 29 15 42 26 13 12 48 37 77 56 28 19 52 37 52 40 0 2 -4 1 -10 -2 -5
-3 -8 0 -5 7 3 7 20 21 38 31 l32 17 -24 -20 c-28 -24 -20 -26 14 -4 14 9 22
20 19 25 -3 5 1 7 8 4 7 -2 26 6 41 19 19 15 23 23 13 23 -9 0 -16 -4 -16 -8
0 -5 -8 -6 -17 -3 -15 5 -16 4 -3 -5 9 -7 10 -11 3 -11 -6 0 -14 4 -17 9 -9
13 40 42 61 35 13 -4 15 -3 5 4 -10 7 -2 16 35 38 44 26 56 28 151 29 56 0
102 -3 102 -8 0 -4 4 -6 9 -3 15 9 63 -13 56 -25 -4 -6 -1 -10 6 -8 27 3 40
-1 34 -11 -4 -6 1 -7 11 -3 10 4 15 2 11 -3 -3 -6 4 -11 15 -11 12 -1 24 -6
27 -11 3 -4 26 -22 51 -39 62 -42 189 -168 230 -229 19 -27 38 -52 43 -55 16
-11 17 -150 1 -180 -7 -15 -54 -64 -103 -109 -50 -45 -89 -87 -88 -93 1 -6 -3
-11 -10 -12 -6 0 -15 -4 -20 -9 -5 -5 -3 -6 5 -2 7 4 12 1 12 -8 0 -8 10 -24
22 -36 12 -11 18 -20 12 -20 -16 -1 30 -24 52 -26 13 -1 32 8 45 22 12 13 19
24 14 24 -5 0 9 18 30 40 21 22 45 40 52 40 7 0 13 5 13 11 0 7 8 19 18 28 25
23 91 118 104 149 10 27 17 162 8 162 -3 0 -14 21 -24 47 -29 69 -119 158
-296 289 -87 65 -157 120 -155 122 4 5 147 -90 188 -124 16 -13 33 -24 39 -24
12 0 -90 76 -166 125 -28 17 -58 32 -67 32 -9 0 -45 13 -80 30 -89 42 -117 53
-140 53 -11 0 -17 5 -14 10 6 10 -98 12 -159 3z m152 -130 c-10 -2 -26 -2 -35
0 -10 3 -2 5 17 5 19 0 27 -2 18 -5z m-403 -213 c-3 -5 -12 -10 -18 -10 -7 0
-6 4 3 10 19 12 23 12 15 0z m-1054 -627 c-12 -23 -71 -77 -71 -67 0 8 70 84
77 84 2 0 -1 -8 -6 -17z m1886 -49 c-3 -3 -12 -4 -19 -1 -8 3 -5 6 6 6 11 1
17 -2 13 -5z m-1510 -530 c-3 -3 -12 -4 -19 -1 -8 3 -5 6 6 6 11 1 17 -2 13
-5z"/>
<path d="M2159 3819 l-24 -20 28 17 c15 9 27 18 27 20 0 8 -8 4 -31 -17z"/>
<path d="M2109 3783 c-13 -16 -12 -17 4 -4 16 13 21 21 13 21 -2 0 -10 -8 -17
-17z"/>
<path d="M2308 3733 c-21 -9 -38 -19 -38 -24 0 -7 86 26 99 37 10 9 -27 1 -61
-13z"/>
<path d="M2974 3632 c8 -13 66 -56 66 -49 0 3 -17 17 -37 33 -20 15 -33 23
-29 16z"/>
<path d="M3050 3566 c0 -2 8 -10 18 -17 15 -13 16 -12 3 4 -13 16 -21 21 -21
13z"/>
<path d="M2282 3479 c-70 -14 -199 -89 -317 -186 -5 -5 -35 -26 -65 -48 -57
-41 -201 -155 -210 -166 -3 -3 -12 -10 -21 -15 -26 -14 -109 -85 -161 -135
-50 -48 -56 -82 -17 -94 10 -4 19 -13 19 -21 0 -11 7 -10 32 6 17 10 36 17 40
14 11 -7 49 26 43 36 -3 4 3 14 12 21 12 10 14 10 9 2 -11 -19 1 -16 29 9 13
11 22 26 18 31 -3 6 -1 7 4 4 11 -7 43 16 218 152 131 102 277 206 287 204 4
-2 8 1 8 7 0 5 7 6 17 3 10 -4 14 -2 10 5 -12 17 43 37 114 41 59 2 74 -1 138
-33 39 -20 119 -72 177 -116 58 -45 109 -78 114 -75 4 3 22 -7 40 -21 l31 -27
15 22 c9 12 19 19 24 16 4 -2 15 10 24 28 l16 32 -57 54 c-31 29 -76 61 -100
72 -23 10 -43 23 -43 29 0 6 -4 9 -9 6 -12 -8 -52 29 -43 39 4 5 1 5 -6 1 -9
-5 -24 1 -40 17 -45 42 -103 69 -182 83 -84 15 -107 15 -168 3z"/>
<path d="M3141 3485 c0 -5 6 -19 14 -29 8 -11 15 -15 15 -10 0 6 -7 19 -15 30
-8 10 -14 15 -14 9z"/>
<path d="M3172 3119 c-12 -21 -19 -39 -14 -39 8 0 45 70 40 76 -2 1 -14 -15
-26 -37z"/>
<path d="M3009 2943 l-34 -38 38 34 c20 19 37 36 37 38 0 8 -8 0 -41 -34z"/>
<path d="M3708 2923 c7 -3 16 -2 19 1 4 3 -2 6 -13 5 -11 0 -14 -3 -6 -6z"/>
<path d="M3758 2923 c7 -3 16 -2 19 1 4 3 -2 6 -13 5 -11 0 -14 -3 -6 -6z"/>
<path d="M3568 2891 c-15 -5 -53 -24 -84 -43 -31 -18 -70 -41 -88 -52 -30 -17
-138 -94 -163 -116 -7 -5 -15 -10 -18 -10 -7 0 -72 -47 -94 -68 -7 -7 -20 -11
-28 -8 -8 3 -11 1 -8 -4 3 -5 -5 -15 -19 -21 -23 -11 -24 -14 -11 -38 7 -14
27 -38 43 -53 30 -28 49 -37 37 -19 -3 5 5 13 17 17 13 4 43 26 68 50 51 48
205 168 262 203 21 12 43 19 49 15 8 -5 9 -3 4 6 -6 10 -4 12 9 7 10 -4 15 -3
11 3 -6 9 -2 12 28 14 6 1 15 5 18 9 8 11 71 11 129 0 65 -12 122 -45 170
-100 l42 -48 -28 45 c-19 31 -22 40 -9 30 35 -29 65 -111 64 -175 0 -38 -3
-53 -8 -41 -7 18 -8 18 -14 -5 -10 -35 -8 -46 4 -29 8 12 9 11 6 -5 -2 -11 -7
-19 -13 -18 -5 0 -18 -11 -28 -25 l-20 -27 24 20 24 20 -16 -25 c-9 -14 -21
-24 -26 -23 -5 1 -9 -3 -8 -10 1 -15 -107 -115 -174 -160 -43 -30 -219 -165
-230 -177 -3 -3 -36 -30 -75 -60 -38 -30 -79 -62 -90 -72 -11 -9 -65 -54 -120
-100 -55 -46 -125 -102 -155 -126 -30 -23 -60 -46 -67 -52 -7 -5 -16 -10 -22
-10 -5 0 -11 -4 -13 -8 -3 -9 -125 -95 -212 -149 -28 -18 -46 -33 -41 -33 6 0
28 11 50 25 46 28 64 32 41 10 -30 -31 -129 -75 -184 -83 -73 -12 -180 -1
-192 18 -6 10 -10 11 -10 3 0 -13 -73 20 -98 45 -8 6 -23 17 -35 24 -12 6 -49
32 -82 58 -33 26 -86 64 -118 84 -32 20 -55 41 -53 45 3 4 -15 27 -39 51 -25
24 -45 41 -45 37 0 -4 19 -26 42 -47 23 -22 37 -40 31 -40 -17 0 -103 98 -119
135 -18 45 -18 143 1 188 8 19 58 79 110 132 76 77 94 102 89 117 -5 16 -3 19
7 12 12 -7 12 -5 0 9 -7 9 -17 14 -22 11 -5 -3 -24 7 -43 21 -45 34 -65 25
-125 -53 -13 -18 -29 -32 -36 -32 -27 0 -113 -116 -134 -180 -12 -37 -17 -66
-12 -70 5 -3 9 -30 9 -60 -2 -66 10 -110 23 -89 5 9 9 10 9 2 0 -6 3 -20 6
-30 5 -15 4 -15 -5 -3 -12 17 -15 2 -5 -25 6 -13 9 -14 16 -3 7 10 8 8 4 -5
-11 -33 70 -157 102 -157 9 0 43 -28 105 -85 15 -14 27 -23 27 -19 0 4 12 -6
28 -22 15 -17 44 -41 65 -53 20 -12 37 -26 37 -30 0 -12 50 -32 62 -25 6 4 8
2 5 -3 -8 -13 10 -28 43 -37 18 -6 21 -5 10 3 -8 5 -12 13 -8 16 3 3 15 -5 26
-19 11 -15 26 -26 34 -26 8 0 18 -3 22 -7 4 -4 21 -7 39 -8 18 0 58 -7 91 -15
46 -11 69 -11 113 -2 42 9 59 8 73 -1 15 -9 22 -9 32 1 11 11 9 12 -7 7 -16
-6 -17 -5 -5 4 8 6 23 8 34 5 20 -7 93 27 126 58 11 10 24 17 29 14 5 -3 12 1
15 10 4 9 9 14 12 11 6 -5 103 71 364 285 52 43 100 81 105 86 6 4 43 34 84
67 40 33 83 67 95 75 11 8 32 25 46 38 14 13 48 39 77 58 28 19 57 41 63 49 7
8 19 15 27 15 7 0 16 7 19 15 3 8 21 24 40 36 19 11 40 26 47 33 6 7 20 15 30
19 11 4 15 12 11 18 -4 7 -3 9 3 6 22 -14 160 140 194 216 13 29 24 34 32 15
3 -7 6 -3 6 10 1 13 -3 20 -9 17 -12 -7 -13 6 -3 31 6 16 7 16 14 -2 5 -10 7
19 5 66 -3 58 -10 97 -22 121 -48 92 -65 118 -98 147 -19 16 -32 33 -29 36 4
3 -1 6 -11 6 -9 0 -19 7 -22 15 -4 8 -10 12 -15 9 -5 -3 -9 -1 -9 4 0 5 -8 13
-17 16 -10 4 -31 14 -48 23 -34 19 -250 29 -297 14z m303 -148 c13 -17 13 -17
-6 -3 -11 8 -22 16 -24 17 -2 2 0 3 6 3 6 0 17 -8 24 -17z m239 -278 c-6 -15
-13 -25 -16 -23 -2 3 1 17 7 32 16 34 23 27 9 -9z m-70 -109 c0 -2 -8 -10 -17
-17 -16 -13 -17 -12 -4 4 13 16 21 21 21 13z m-71 -73 c-13 -10 -42 -33 -65
-53 -23 -19 -14 -9 19 22 34 32 63 55 66 52 3 -2 -6 -12 -20 -21z m-129 -108
c-7 -8 -17 -15 -23 -15 -6 0 -2 7 9 15 25 19 30 19 14 0z m-1999 -28 c-10 -9
-11 -8 -5 6 3 10 9 15 12 12 3 -3 0 -11 -7 -18z m1859 -137 c0 -5 -2 -10 -4
-10 -3 0 -8 5 -11 10 -3 6 -1 10 4 10 6 0 11 -4 11 -10z m-1953 -192 c-3 -8
-6 -5 -6 6 -1 11 2 17 5 13 3 -3 4 -12 1 -19z m153 -181 c0 -14 -39 23 -52 48
-8 14 -2 12 21 -9 17 -17 31 -34 31 -39z m-30 -18 c0 -6 -4 -7 -10 -4 -5 3
-10 11 -10 16 0 6 5 7 10 4 6 -3 10 -11 10 -16z m1158 -13 c-7 -8 -15 -12 -17
-11 -5 6 10 25 20 25 5 0 4 -6 -3 -14z m-48 -30 c0 -2 -7 -7 -16 -10 -8 -3
-12 -2 -9 4 6 10 25 14 25 6z m-40 -25 c0 -5 -10 -11 -22 -14 -22 -6 -22 -6
-4 8 23 17 26 18 26 6z m-60 -41 c-24 -15 -36 -11 -14 4 10 8 21 12 24 10 2
-3 -2 -9 -10 -14z m-759 -107 c13 -17 13 -17 -6 -3 -11 8 -22 16 -24 17 -2 2
0 3 6 3 6 0 17 -8 24 -17z m744 -43 c-3 -5 -12 -10 -18 -10 -7 0 -6 4 3 10 19
12 23 12 15 0z m-625 -40 c0 -5 -2 -10 -4 -10 -3 0 -8 5 -11 10 -3 6 -1 10 4
10 6 0 11 -4 11 -10z m303 -70 c-23 -5 -54 -5 -70 0 -21 6 -12 8 42 8 64 0 66
-1 28 -8z"/>
<path d="M1550 2815 c-17 -10 -20 -14 -9 -15 9 0 22 7 29 15 15 18 12 18 -20
0z"/>
<path d="M3319 2773 c-13 -17 -13 -17 6 -3 11 8 22 16 24 17 2 2 0 3 -6 3 -6
0 -17 -8 -24 -17z"/>
<path d="M1081 2674 c0 -11 3 -14 6 -6 3 7 2 16 -1 19 -3 4 -6 -2 -5 -13z"/>
<path d="M3941 2615 c1 -19 18 -51 18 -35 0 8 -4 22 -9 30 -5 8 -9 11 -9 5z"/>
<path d="M1134 2551 c21 -23 26 -26 26 -11 0 5 -10 15 -22 21 -23 12 -23 12
-4 -10z"/>
<path d="M3520 2420 c0 -5 -5 -10 -11 -10 -6 0 -41 -26 -77 -58 -37 -32 -107
-89 -155 -126 -49 -37 -96 -75 -106 -84 -60 -58 -142 -120 -233 -177 -9 -5
-67 -47 -130 -92 -123 -90 -220 -131 -280 -118 -17 4 -26 10 -20 14 7 4 -6 12
-28 18 -22 5 -37 6 -34 2 3 -5 1 -9 -4 -9 -12 0 -37 30 -26 30 5 0 1 7 -9 15
-11 7 -24 12 -30 9 -7 -2 -70 52 -140 121 -70 69 -132 125 -137 125 -17 0 -90
-79 -90 -98 0 -10 18 -35 40 -57 29 -28 37 -41 27 -48 -9 -6 -8 -7 3 -4 8 3
29 -8 45 -24 17 -15 36 -29 44 -31 18 -4 90 -68 102 -90 12 -22 5 -23 -15 -2
-9 8 -16 12 -16 7 0 -5 23 -26 51 -48 28 -22 57 -45 64 -52 7 -7 15 -10 18 -7
2 3 -15 25 -39 49 -24 25 -41 45 -39 45 10 0 95 -65 95 -73 0 -4 5 -5 12 -1 8
5 9 2 4 -11 -6 -16 -4 -16 11 -4 10 7 15 9 10 4 -4 -5 7 -14 25 -20 18 -6 32
-16 31 -23 -2 -7 2 -12 7 -12 6 0 10 5 10 10 0 6 23 9 53 8 l52 -1 -45 -7
c-45 -7 -45 -7 16 -8 47 -2 63 2 68 13 4 10 -1 15 -17 16 -21 0 -21 1 -2 9 30
13 34 12 30 -10 -4 -22 2 -25 24 -11 8 5 11 15 8 23 -3 9 1 15 9 15 8 0 14 -4
14 -9 0 -5 6 -3 14 4 8 7 12 15 10 17 -2 3 15 11 38 19 24 8 45 18 48 22 3 5
12 10 20 12 8 2 23 13 33 26 10 12 23 20 27 17 5 -3 7 4 5 15 -3 18 -1 19 17
9 13 -7 18 -7 14 0 -7 11 32 37 49 32 5 -1 7 0 3 4 -9 9 9 27 42 45 14 7 31
21 38 32 7 10 18 18 23 18 6 0 17 6 24 13 33 29 45 37 54 37 5 0 17 10 25 22
9 12 16 20 16 16 0 -4 17 10 39 30 92 88 201 173 212 166 5 -3 9 2 9 10 0 15
12 21 33 17 5 -1 6 3 3 8 -3 5 16 26 44 46 27 20 59 50 71 66 20 28 20 31 4
55 -23 35 -105 62 -105 34z m-1115 -608 c-3 -3 -11 0 -18 7 -9 10 -8 11 6 5
10 -3 15 -9 12 -12z m135 -192 l25 -8 -25 -1 c-14 0 -32 4 -40 9 -13 9 -13 10
0 9 8 -1 26 -5 40 -9z"/>
<path d="M1188 2333 c7 -3 16 -2 19 1 4 3 -2 6 -13 5 -11 0 -14 -3 -6 -6z"/>
<path d="M1230 2330 c-11 -7 -7 -10 18 -10 17 0 32 5 32 10 0 13 -30 13 -50 0z"/>
<path d="M1882 1850 c0 -14 2 -19 5 -12 2 6 2 18 0 25 -3 6 -5 1 -5 -13z"/>
<path d="M1900 1781 c0 -6 4 -13 10 -16 6 -3 7 1 4 9 -7 18 -14 21 -14 7z"/>
</g>
</svg>
